<?xml version="1.0" encoding="UTF-8"?>
<!DOCTYPE svg PUBLIC "-//W3C//DTD SVG 1.1//EN" "http://www.w3.org/Graphics/SVG/1.1/DTD/svg11.dtd">
<!-- Creator: CorelDRAW 2019 (64 Bit) -->
<svg xmlns="http://www.w3.org/2000/svg" xml:space="preserve" width="1510px" height="1024px" version="1.1" style="shape-rendering:geometricPrecision; text-rendering:geometricPrecision; image-rendering:optimizeQuality; fill-rule:evenodd; clip-rule:evenodd"
viewBox="0 0 1509.87 1024.05"
 xmlns:xlink="http://www.w3.org/1999/xlink">
 <defs>
  <style type="text/css">
   <![CDATA[
    .fil1 {fill:#2C3E50;fill-rule:nonzero}
    .fil0 {fill:url(#id0)}
   ]]>
  </style>
  <linearGradient id="id0" gradientUnits="userSpaceOnUse" x1="545.72" y1="238.32" x2="1427.74" y2="238.32">
   <stop offset="0" style="stop-opacity:1; stop-color:#22A6B3"/>
   <stop offset="1" style="stop-opacity:1; stop-color:#BADC58"/>
  </linearGradient>
 </defs>
 <g id="Camada_x0020_1">
  <metadata id="CorelCorpID_0Corel-Layer"/>
  <g id="_2556053146640">
   <path class="fil0" d="M847.36 130.41c0,-13.8 11.18,-24.98 24.97,-24.98 13.8,0 24.98,11.18 24.98,24.98l0 215.87c0,13.79 -11.18,24.97 -24.98,24.97 -13.79,0 -24.97,-11.18 -24.97,-24.97l0 -215.87zm-89.29 -53.85c0,-13.79 11.19,-24.97 24.98,-24.97 13.79,0 24.97,11.18 24.97,24.97l0 235.43c0,13.79 -11.18,24.97 -24.97,24.97 -13.79,0 -24.98,-11.18 -24.98,-24.97l0 -235.43zm-89.29 92.28c0,-13.79 11.18,-24.97 24.98,-24.97 13.79,0 24.97,11.18 24.97,24.97l0 139c0,13.79 -11.18,24.98 -24.97,24.98 -13.8,0 -24.98,-11.19 -24.98,-24.98l0 -139zm-89.29 -69.66c0,-13.79 11.19,-24.97 24.98,-24.97 13.79,0 24.98,11.18 24.98,24.97l0 278.32c0,13.79 -11.19,24.98 -24.98,24.98 -13.79,0 -24.98,-11.19 -24.98,-24.98l0 -278.32zm-89.28 43.76c0,-13.79 11.18,-24.98 24.97,-24.98 13.8,0 24.98,11.19 24.98,24.98l0 278.47c0,13.79 -11.18,24.97 -24.98,24.97 -13.79,0 -24.97,-11.18 -24.97,-24.97l0 -278.47zm-176 -29.35c0,-13.79 11.18,-24.97 24.98,-24.97 13.79,0 24.97,11.18 24.97,24.97l0 249.5c0,13.79 -11.18,24.98 -24.97,24.98 -13.8,0 -24.98,-11.19 -24.98,-24.98l0 -249.5zm1004.2 259.99c9.96,-9.48 25.74,-9.08 35.22,0.88 9.47,9.96 9.08,25.74 -0.88,35.21 -22.16,21.12 -48.33,38.09 -77.24,49.66 -27.98,11.2 -58.39,17.35 -90.09,17.35 -31.71,0 -62.12,-6.15 -90.1,-17.34 -28.91,-11.57 -55.08,-28.54 -77.24,-49.65 -9.96,-9.48 -10.36,-25.26 -0.88,-35.22 9.48,-9.96 25.26,-10.35 35.22,-0.88 17.64,16.8 38.46,30.31 61.44,39.5 22,8.8 46.14,13.64 71.56,13.64 25.41,0 49.56,-4.84 71.55,-13.64 22.98,-9.2 43.81,-22.7 61.44,-39.51zm-78.92 -324.79c-13.2,-3.82 -20.8,-17.63 -16.98,-30.83 3.82,-13.19 17.63,-20.79 30.83,-16.97 51.08,14.88 95.21,46.09 126.31,87.57 30.44,40.61 48.48,90.96 48.48,145.41 0,10.05 -0.62,20.03 -1.83,29.88 -1.21,9.85 -3.06,19.66 -5.49,29.35 -3.34,13.37 -16.88,21.48 -30.24,18.15 -13.37,-3.34 -21.48,-16.88 -18.15,-30.24 1.88,-7.48 3.33,-15.26 4.32,-23.31 0.95,-7.75 1.44,-15.71 1.44,-23.83 0,-43.45 -14.26,-83.45 -38.33,-115.56 -24.74,-33 -59.8,-57.81 -100.36,-69.62zm-241.08 232.32c3.33,13.36 -4.79,26.9 -18.15,30.24 -13.36,3.33 -26.9,-4.78 -30.24,-18.15 -2.43,-9.68 -4.28,-19.49 -5.49,-29.35 -1.21,-9.85 -1.83,-19.83 -1.83,-29.88 0,-54.45 18.04,-104.8 48.48,-145.41 31.1,-41.48 75.23,-72.69 126.32,-87.57 13.19,-3.82 27,3.78 30.82,16.97 3.82,13.2 -3.78,27.01 -16.97,30.83 -40.56,11.81 -75.63,36.62 -100.37,69.62 -24.06,32.11 -38.33,72.11 -38.33,115.56 0,8.13 0.49,16.09 1.44,23.84 0.99,8.04 2.44,15.83 4.32,23.3zm256.17 25.97c9.96,-9.48 25.74,-9.09 35.21,0.88 9.48,9.96 9.09,25.73 -0.87,35.21 -13.71,12.99 -29.94,23.45 -47.9,30.61 -17.35,6.92 -36.13,10.72 -55.6,10.72 -19.47,0 -38.25,-3.8 -55.61,-10.72 -17.96,-7.15 -34.19,-17.62 -47.9,-30.6 -9.96,-9.48 -10.35,-25.26 -0.87,-35.22 9.47,-9.96 25.25,-10.35 35.21,-0.88 9.21,8.73 20.03,15.73 31.9,20.46 11.36,4.52 23.93,7.01 37.27,7.01 13.34,0 25.9,-2.49 37.26,-7.01 11.87,-4.74 22.68,-11.73 31.9,-20.46zm-40.77 -169.74c-13.2,-3.82 -20.8,-17.63 -16.98,-30.83 3.82,-13.19 17.63,-20.79 30.83,-16.97 31.65,9.26 58.99,28.61 78.23,54.31 18.88,25.21 30.07,56.42 30.07,90.12 0,6.3 -0.41,12.57 -1.18,18.75 -0.79,6.33 -1.97,12.53 -3.5,18.55 -3.4,13.36 -16.99,21.43 -30.35,18.04 -13.36,-3.39 -21.43,-16.98 -18.04,-30.34 1.02,-4.02 1.82,-8.14 2.33,-12.3 0.51,-4.11 0.78,-8.36 0.78,-12.7 0,-22.71 -7.41,-43.58 -19.91,-60.27 -12.9,-17.23 -31.16,-30.19 -52.28,-36.36zm-125.87 121.64c3.4,13.36 -4.68,26.94 -18.04,30.34 -13.36,3.39 -26.95,-4.69 -30.34,-18.05 -1.54,-6.01 -2.72,-12.22 -3.51,-18.55 -0.76,-6.18 -1.17,-12.45 -1.17,-18.75 0,-33.7 11.18,-64.91 30.07,-90.12 19.24,-25.7 46.57,-45.05 78.23,-54.31 13.19,-3.82 27,3.78 30.82,16.97 3.82,13.2 -3.78,27.01 -16.97,30.83 -21.12,6.17 -39.39,19.13 -52.29,36.36 -12.5,16.69 -19.91,37.56 -19.91,60.27 0,4.34 0.27,8.59 0.78,12.71 0.52,4.16 1.31,8.28 2.33,12.3zm97.48 -78.12c29.33,0 53.1,23.77 53.1,53.11 0,29.33 -23.77,53.1 -53.1,53.1 -29.33,0 -53.11,-23.77 -53.11,-53.1 0,-29.34 23.78,-53.11 53.11,-53.11zm-784.25 -12.02c0,-13.79 11.19,-24.97 24.98,-24.97 13.79,0 24.98,11.18 24.98,24.97l0 139c0,13.79 -11.19,24.98 -24.98,24.98 -13.79,0 -24.98,-11.19 -24.98,-24.98l0 -139zm356.9 204.23c0,-13.79 11.19,-24.98 24.98,-24.98 13.79,0 24.97,11.19 24.97,24.98l0 23.52c0,13.8 -11.18,24.98 -24.97,24.98 -13.79,0 -24.98,-11.18 -24.98,-24.98l0 -23.52zm-267.86 -317.8c0,-13.79 11.18,-24.97 24.97,-24.97 13.8,0 24.98,11.18 24.98,24.97l0 23.53c0,13.79 -11.18,24.97 -24.98,24.97 -13.79,0 -24.97,-11.18 -24.97,-24.97l0 -23.53z"/>
   <path class="fil1" d="M250.41 512.09l-230.17 0c-11.17,0 -20.24,9.07 -20.24,20.24l0 10.23c0,11.17 9.07,20.24 20.24,20.24l65.92 0c11.16,0 20.16,9.08 20.16,20.24l0 233.74c0,11.16 9.07,20.24 20.24,20.24l16.6 0c11.16,0 20.16,-9.08 20.16,-20.24l0 -197.13c0,-11.64 -6.13,-22.34 -16.13,-28.15l-19.7 -11.4c-8.22,-4.73 -4.81,-17.3 4.65,-17.3l31.18 0 87.09 0c11.16,0 20.16,-8.99 20.16,-20.16l0 -10.31c0,-11.17 -9,-20.24 -20.16,-20.24l0 0z"/>
   <path id="1" class="fil1" d="M304.38 741.94l130.36 0c12.1,0 21.94,-9.85 22.02,-21.95 0,-70.87 -48.47,-108.1 -103.22,-108.1 -60.1,0 -112.52,45.76 -112.52,115.7 0,69.1 52.04,114.78 122.92,114.78 22.41,0 46.53,-4.66 65.84,-12.88 8.99,-3.87 14.81,-12.64 14.81,-22.49 0,-14.73 -14.97,-24.73 -28.54,-19.07 -14.66,6.05 -30.4,9.61 -46.76,9.61 -34.28,0 -61.73,-15.97 -71.12,-47.22 -1.24,-4.19 1.87,-8.38 6.21,-8.38l0 0zm-5.58 -47.23c9.22,-26.6 31.79,-38.85 54.28,-38.85 22.26,0 44.2,12.41 51.18,39.16 1.24,4.66 -2.17,9.23 -7.05,9.23l-91.43 0c-5.05,0 -8.61,-4.88 -6.98,-9.54l0 0z"/>
   <path id="2" class="fil1" d="M521.52 496.34l-13.81 0c-11.09,0 -20.08,9.08 -20.08,20.17l0 300.81c0,11.17 8.99,20.16 20.08,20.16l13.81 0c11.09,0 20.16,-8.99 20.16,-20.16l0 -300.81c0,-11.09 -9.07,-20.17 -20.16,-20.17z"/>
   <path id="3" class="fil1" d="M636.13 741.94l130.36 0c12.1,0 21.95,-9.85 22.03,-21.95 0,-70.87 -48.47,-108.1 -103.22,-108.1 -60.1,0 -112.52,45.76 -112.52,115.7 0,69.1 52.03,114.78 122.91,114.78 22.41,0 46.53,-4.66 65.84,-12.88 8.99,-3.87 14.81,-12.64 14.81,-22.49 0,-14.73 -14.97,-24.73 -28.54,-19.07 -14.65,6.05 -30.4,9.61 -46.76,9.61 -34.28,0 -61.73,-15.97 -71.11,-47.22 -1.24,-4.19 1.86,-8.38 6.2,-8.38l0 0zm-5.58 -47.23c9.23,-26.6 31.79,-38.85 54.28,-38.85 22.26,0 44.21,12.41 51.19,39.16 1.24,4.66 -2.18,9.23 -7.06,9.23l-91.43 0c-5.04,0 -8.61,-4.88 -6.98,-9.54l0 0z"/>
   <path id="4" class="fil1" d="M982.23 696.88c45.76,-11.24 72.2,-45.28 72.2,-89.25 0,-38.55 -20.16,-64.52 -46.61,-78.87 -25.59,-13.96 -57.85,-16.21 -91.04,-16.21l-74.37 0c-11.16,0 -20.24,9.08 -20.24,20.24l0 284.22c0,11.16 9.08,20.24 20.24,20.24l16.52 0c11.17,0 20.16,-9.08 20.16,-20.24l0 -106.32c0,-4.19 3.42,-7.52 7.6,-7.52l28.31 0c4.73,0 9.23,2.32 11.86,6.28l80.34 118.88c3.73,5.58 10.01,8.92 16.75,8.92l17.38 0c16.28,0 25.9,-18.38 16.59,-31.8l-75.69 -108.57zm-57.85 -37.68c-9.23,0 -18.07,4.03 -24.12,11.09l-13.18 15.27c-2.71,3.18 -7.91,1.17 -7.91,-3.02l0.08 -23.34 -0.16 0 0 -95.93 34.59 0c28.23,0 46.14,1.32 60.49,8.92 14.34,7.67 23.34,19.77 23.34,39 0,16.21 -6.28,27.38 -16.6,34.98 -13.02,9.46 -30.47,13.03 -56.53,13.03l0 0z"/>
   <path id="5" class="fil1" d="M1240.16 639.03c-16.13,-13.49 -40.95,-20 -68.79,-20 -26.83,0 -49.24,6.04 -65.83,14.03 -3.88,1.94 -6.36,5.82 -6.36,10.08l0 22.57c0,8.07 8.37,13.42 15.74,10.08 13.88,-6.28 30.4,-10.62 48.62,-10.62 16.13,0 28.31,3.41 36.14,10.39 6.9,6.51 10.39,16.05 10.47,29 0,6.44 -5.66,11.48 -12.02,10.39 -9.39,-1.55 -19,-2.4 -29.31,-2.4 -22.26,0 -43.97,3.88 -60.11,14.81 -16.05,10.86 -27.37,28.23 -27.37,51.73 0,21.32 9.15,38.31 23.96,49.16 14.35,10.47 32.19,14.35 49.56,14.35 6.98,0 13.57,-0.54 19.69,-1.63 13.19,-2.25 24.59,-10.39 31.49,-21.87l10.93 -18.3c1.94,-3.33 6.98,-2.4 7.6,1.4l0.86 17.83c0.46,10.01 8.68,17.84 18.61,17.84 10.31,0 18.69,-8.38 18.69,-18.69l0 -123.15c0,-26.52 -8.22,-44.82 -22.57,-57l0 0zm-30.01 138.43c0,6.82 -3.88,13.26 -10.08,16.13 -9.31,4.34 -20.63,7.29 -32.19,7.29 -18.68,0 -33.88,-8.3 -33.88,-25.67 0,-20.86 21.32,-27.84 43.04,-27.84 7.75,0 16.82,0.93 24.97,2.48 4.73,0.93 8.14,4.96 8.14,9.77l0 17.84 0 0z"/>
   <path id="6" class="fil1" d="M1489.87 496.58l-13.96 0c-11.09,0 -20.01,8.91 -20.01,20l0 105.86 -0.93 0.39c-12.95,-5.82 -28.07,-9.77 -47.3,-9.77 -67.39,0 -116.02,50.4 -116.02,118.64 0,67.39 47.77,110.67 105.31,110.67l0.31 0c16.44,0 31.64,-8.77 39.94,-22.96l10.24 -17.68c2.32,-3.95 8.45,-2.33 8.45,2.33l0 20.7 0.39 0.24c0,6.9 5.66,12.48 12.48,12.48l28.62 0c6.9,0 12.48,-5.58 12.48,-12.48l0 -308.42c0,-11.09 -8.99,-20 -20,-20l0 0zm-33.97 274.13c0,7.21 -4.11,13.81 -10.55,17.06 -10.93,5.35 -23.57,9.08 -37.22,9.08 -39.24,0 -62.04,-29.86 -62.04,-67.78 0,-39.32 24.12,-70.11 65.14,-70.11 11.4,0 22.34,2.33 32.19,5.9 7.52,2.63 12.48,9.85 12.48,17.83l0 88.02z"/>
   <polygon class="fil1" points="160.62,937.31 165.45,937.31 165.45,999.17 203.57,999.17 203.57,1003.52 160.62,1003.52 "/>
   <path id="1" class="fil1" d="M267.73 984.89l-38.4 0 -8.42 18.63 -5.2 0 30.45 -66.21 4.83 0 30.46 66.21 -5.2 0 -8.52 -18.63zm-1.8 -4.07l-17.4 -38.22 -17.31 38.22 34.71 0z"/>
   <path id="2" class="fil1" d="M328.68 1003.99c-8.39,0 -14.9,-2.42 -19.53,-7.28 -4.64,-4.86 -6.96,-11.95 -6.96,-21.28l0 -38.12 4.83 0 0 37.93c0,8.13 1.86,14.22 5.58,18.25 3.72,4.04 9.11,6.06 16.17,6.06 7,0 12.36,-2.02 16.08,-6.06 3.73,-4.03 5.59,-10.12 5.59,-18.25l0 -37.93 4.82 0 0 38.12c0,9.33 -2.33,16.42 -7,21.28 -4.67,4.86 -11.19,7.28 -19.58,7.28z"/>
   <path id="3" class="fil1" d="M388.49 937.31l26.2 0c6.88,0 12.98,1.41 18.31,4.25 5.33,2.84 9.47,6.77 12.44,11.78 2.96,5.01 4.44,10.7 4.44,17.07 0,6.37 -1.48,12.06 -4.44,17.08 -2.97,5.01 -7.11,8.94 -12.44,11.77 -5.33,2.84 -11.43,4.26 -18.31,4.26l-26.2 0 0 -66.21zm25.82 61.86c6.12,0 11.51,-1.21 16.18,-3.64 4.67,-2.43 8.26,-5.82 10.78,-10.17 2.53,-4.35 3.79,-9.33 3.79,-14.95 0,-5.61 -1.26,-10.59 -3.79,-14.94 -2.52,-4.35 -6.11,-7.74 -10.78,-10.17 -4.67,-2.43 -10.06,-3.64 -16.18,-3.64l-20.99 0 0 57.51 20.99 0z"/>
   <path id="4" class="fil1" d="M505.44 1003.99c-6.5,0 -12.36,-1.46 -17.6,-4.39 -5.23,-2.94 -9.35,-6.96 -12.34,-12.07 -3,-5.1 -4.5,-10.81 -4.5,-17.12 0,-6.3 1.5,-12.01 4.5,-17.12 2.99,-5.11 7.11,-9.13 12.34,-12.06 5.24,-2.93 11.1,-4.4 17.6,-4.4 6.49,0 12.36,1.45 17.59,4.35 5.24,2.9 9.35,6.91 12.35,12.02 2.99,5.11 4.49,10.84 4.49,17.21 0,6.37 -1.5,12.11 -4.49,17.22 -3,5.11 -7.11,9.11 -12.35,12.01 -5.23,2.9 -11.1,4.35 -17.59,4.35zm0 -4.44c5.55,0 10.56,-1.26 15.04,-3.79 4.48,-2.52 8.01,-6 10.59,-10.45 2.59,-4.44 3.88,-9.41 3.88,-14.9 0,-5.48 -1.29,-10.45 -3.88,-14.89 -2.58,-4.45 -6.11,-7.93 -10.59,-10.46 -4.48,-2.52 -9.49,-3.78 -15.04,-3.78 -5.55,0 -10.58,1.26 -15.09,3.78 -4.51,2.53 -8.06,6.01 -10.64,10.46 -2.59,4.44 -3.88,9.41 -3.88,14.89 0,5.49 1.29,10.46 3.88,14.9 2.58,4.45 6.13,7.93 10.64,10.45 4.51,2.53 9.54,3.79 15.09,3.79z"/>
   <path id="5" class="fil1" d="M584.73 1003.99c-4.85,0 -9.47,-0.83 -13.85,-2.5 -4.38,-1.67 -7.81,-3.83 -10.27,-6.48l2.18 -3.6c2.33,2.46 5.47,4.46 9.41,6.01 3.94,1.54 8.09,2.32 12.44,2.32 6.31,0 11.07,-1.2 14.28,-3.6 3.22,-2.39 4.83,-5.52 4.83,-9.36 0,-2.97 -0.85,-5.33 -2.56,-7.1 -1.7,-1.76 -3.81,-3.12 -6.33,-4.06 -2.53,-0.95 -5.93,-1.93 -10.22,-2.94 -4.86,-1.19 -8.75,-2.36 -11.68,-3.5 -2.93,-1.13 -5.42,-2.88 -7.47,-5.25 -2.05,-2.36 -3.08,-5.53 -3.08,-9.5 0,-3.22 0.85,-6.17 2.56,-8.85 1.7,-2.68 4.3,-4.81 7.8,-6.38 3.5,-1.58 7.87,-2.37 13.1,-2.37 3.66,0 7.25,0.54 10.78,1.61 3.54,1.07 6.59,2.52 9.18,4.35l-1.8 3.88c-2.65,-1.83 -5.56,-3.22 -8.75,-4.16 -3.18,-0.95 -6.32,-1.42 -9.41,-1.42 -6.12,0 -10.75,1.23 -13.9,3.69 -3.16,2.46 -4.73,5.64 -4.73,9.55 0,2.97 0.85,5.33 2.55,7.1 1.7,1.76 3.81,3.12 6.34,4.06 2.52,0.95 5.96,1.96 10.31,3.03 4.85,1.2 8.73,2.37 11.63,3.5 2.9,1.14 5.38,2.85 7.43,5.16 2.05,2.3 3.07,5.4 3.07,9.31 0,3.22 -0.86,6.15 -2.6,8.8 -1.73,2.65 -4.4,4.76 -7.99,6.34 -3.6,1.58 -8.01,2.36 -13.25,2.36z"/>
   <polygon id="6" class="fil1" points="729.96,999.17 729.96,1003.52 684.27,1003.52 684.27,937.31 728.54,937.31 728.54,941.66 689.1,941.66 689.1,967.77 724.38,967.77 724.38,972.02 689.1,972.02 689.1,999.17 "/>
   <path id="7" class="fil1" d="M824.3 1003.99c-4.86,0 -9.48,-0.83 -13.86,-2.5 -4.38,-1.67 -7.8,-3.83 -10.26,-6.48l2.17 -3.6c2.34,2.46 5.47,4.46 9.42,6.01 3.94,1.54 8.08,2.32 12.43,2.32 6.31,0 11.07,-1.2 14.29,-3.6 3.22,-2.39 4.82,-5.52 4.82,-9.36 0,-2.97 -0.85,-5.33 -2.55,-7.1 -1.7,-1.76 -3.82,-3.12 -6.34,-4.06 -2.52,-0.95 -5.93,-1.93 -10.22,-2.94 -4.85,-1.19 -8.75,-2.36 -11.68,-3.5 -2.93,-1.13 -5.42,-2.88 -7.47,-5.25 -2.05,-2.36 -3.07,-5.53 -3.07,-9.5 0,-3.22 0.85,-6.17 2.55,-8.85 1.7,-2.68 4.3,-4.81 7.8,-6.38 3.5,-1.58 7.87,-2.37 13.1,-2.37 3.66,0 7.26,0.54 10.79,1.61 3.53,1.07 6.59,2.52 9.17,4.35l-1.79 3.88c-2.65,-1.83 -5.57,-3.22 -8.75,-4.16 -3.19,-0.95 -6.33,-1.42 -9.42,-1.42 -6.11,0 -10.75,1.23 -13.9,3.69 -3.15,2.46 -4.73,5.64 -4.73,9.55 0,2.97 0.85,5.33 2.55,7.1 1.71,1.76 3.82,3.12 6.34,4.06 2.52,0.95 5.96,1.96 10.31,3.03 4.86,1.2 8.74,2.37 11.64,3.5 2.9,1.14 5.37,2.85 7.42,5.16 2.05,2.3 3.08,5.4 3.08,9.31 0,3.22 -0.87,6.15 -2.6,8.8 -1.74,2.65 -4.4,4.76 -8,6.34 -3.59,1.58 -8.01,2.36 -13.24,2.36z"/>
   <polygon id="8" class="fil1" points="920.91,999.17 920.91,1003.52 875.22,1003.52 875.22,937.31 919.49,937.31 919.49,941.66 880.04,941.66 880.04,967.77 915.33,967.77 915.33,972.02 880.04,972.02 880.04,999.17 "/>
   <path id="9" class="fil1" d="M995.19 1003.52l-15.79 -22.13c-2.34,0.31 -4.48,0.47 -6.44,0.47l-18.92 0 0 21.66 -4.82 0 0 -66.21 23.74 0c8.33,0 14.85,1.97 19.58,5.91 4.73,3.94 7.1,9.41 7.1,16.41 0,5.23 -1.34,9.63 -4.02,13.2 -2.68,3.56 -6.51,6.07 -11.5,7.52l16.56 23.17 -5.49 0zm-22.23 -25.92c7.07,0 12.46,-1.56 16.18,-4.68 3.72,-3.12 5.58,-7.55 5.58,-13.29 0,-5.74 -1.86,-10.17 -5.58,-13.29 -3.72,-3.12 -9.11,-4.68 -16.18,-4.68l-18.92 0 0 35.94 18.92 0z"/>
   <polygon id="10" class="fil1" points="1080.92,937.31 1051.41,1003.52 1046.58,1003.52 1017.07,937.31 1022.37,937.31 1049.14,997.28 1075.91,937.31 "/>
   <polygon id="11" class="fil1" points="1102.33,937.31 1107.15,937.31 1107.15,1003.52 1102.33,1003.52 "/>
   <path id="12" class="fil1" d="M1168.95 1003.99c-6.49,0 -12.34,-1.45 -17.55,-4.35 -5.2,-2.9 -9.3,-6.9 -12.29,-12.01 -3,-5.11 -4.5,-10.85 -4.5,-17.22 0,-6.37 1.5,-12.1 4.5,-17.21 2.99,-5.11 7.09,-9.12 12.29,-12.02 5.21,-2.9 11.06,-4.35 17.55,-4.35 4.79,0 9.21,0.77 13.24,2.32 4.04,1.55 7.48,3.83 10.32,6.86l-3.03 3.12c-5.3,-5.23 -12.08,-7.85 -20.34,-7.85 -5.55,0 -10.59,1.26 -15.13,3.78 -4.54,2.53 -8.11,6.01 -10.69,10.46 -2.59,4.44 -3.88,9.41 -3.88,14.89 0,5.49 1.29,10.46 3.88,14.9 2.58,4.45 6.15,7.93 10.69,10.45 4.54,2.53 9.58,3.79 15.13,3.79 8.2,0 14.98,-2.65 20.34,-7.95l3.03 3.12c-2.84,3.03 -6.3,5.33 -10.36,6.91 -4.07,1.58 -8.47,2.36 -13.2,2.36zm-3.03 20.06c-2.96,0 -5.45,-0.79 -7.47,-2.37l1.33 -2.65c1.7,1.33 3.75,1.99 6.14,1.99 1.9,0 3.41,-0.44 4.55,-1.32 1.13,-0.89 1.7,-2.12 1.7,-3.69 0,-1.45 -0.54,-2.62 -1.61,-3.5 -1.07,-0.89 -2.62,-1.33 -4.64,-1.33l-1.89 0 2.18 -8.23 3.12 0 -1.51 5.68c2.52,0.19 4.49,0.96 5.91,2.32 1.42,1.35 2.13,3.1 2.13,5.25 0,2.39 -0.93,4.3 -2.79,5.72 -1.86,1.42 -4.24,2.13 -7.15,2.13z"/>
   <path id="13" class="fil1" d="M1246.07 1003.99c-6.49,0 -12.36,-1.46 -17.59,-4.39 -5.23,-2.94 -9.35,-6.96 -12.35,-12.07 -2.99,-5.1 -4.49,-10.81 -4.49,-17.12 0,-6.3 1.5,-12.01 4.49,-17.12 3,-5.11 7.12,-9.13 12.35,-12.06 5.23,-2.93 11.1,-4.4 17.59,-4.4 6.5,0 12.36,1.45 17.6,4.35 5.23,2.9 9.35,6.91 12.34,12.02 3,5.11 4.5,10.84 4.5,17.21 0,6.37 -1.5,12.11 -4.5,17.22 -2.99,5.11 -7.11,9.11 -12.34,12.01 -5.24,2.9 -11.1,4.35 -17.6,4.35zm0 -4.44c5.55,0 10.57,-1.26 15.04,-3.79 4.48,-2.52 8.01,-6 10.6,-10.45 2.58,-4.44 3.88,-9.41 3.88,-14.9 0,-5.48 -1.3,-10.45 -3.88,-14.89 -2.59,-4.45 -6.12,-7.93 -10.6,-10.46 -4.47,-2.52 -9.49,-3.78 -15.04,-3.78 -5.55,0 -10.57,1.26 -15.08,3.78 -4.51,2.53 -8.06,6.01 -10.65,10.46 -2.58,4.44 -3.87,9.41 -3.87,14.89 0,5.49 1.29,10.46 3.87,14.9 2.59,4.45 6.14,7.93 10.65,10.45 4.51,2.53 9.53,3.79 15.08,3.79z"/>
   <path id="14" class="fil1" d="M1325.37 1003.99c-4.85,0 -9.47,-0.83 -13.86,-2.5 -4.38,-1.67 -7.8,-3.83 -10.26,-6.48l2.18 -3.6c2.33,2.46 5.47,4.46 9.41,6.01 3.94,1.54 8.09,2.32 12.44,2.32 6.3,0 11.06,-1.2 14.28,-3.6 3.22,-2.39 4.82,-5.52 4.82,-9.36 0,-2.97 -0.85,-5.33 -2.55,-7.1 -1.7,-1.76 -3.81,-3.12 -6.34,-4.06 -2.52,-0.95 -5.93,-1.93 -10.21,-2.94 -4.86,-1.19 -8.75,-2.36 -11.69,-3.5 -2.93,-1.13 -5.42,-2.88 -7.47,-5.25 -2.05,-2.36 -3.07,-5.53 -3.07,-9.5 0,-3.22 0.85,-6.17 2.55,-8.85 1.7,-2.68 4.31,-4.81 7.81,-6.38 3.49,-1.58 7.86,-2.37 13.1,-2.37 3.65,0 7.25,0.54 10.78,1.61 3.53,1.07 6.59,2.52 9.17,4.35l-1.79 3.88c-2.65,-1.83 -5.57,-3.22 -8.75,-4.16 -3.19,-0.95 -6.32,-1.42 -9.41,-1.42 -6.12,0 -10.76,1.23 -13.91,3.69 -3.15,2.46 -4.73,5.64 -4.73,9.55 0,2.97 0.85,5.33 2.56,7.1 1.7,1.76 3.81,3.12 6.33,4.06 2.53,0.95 5.96,1.96 10.31,3.03 4.86,1.2 8.74,2.37 11.64,3.5 2.9,1.14 5.38,2.85 7.42,5.16 2.05,2.3 3.08,5.4 3.08,9.31 0,3.22 -0.87,6.15 -2.6,8.8 -1.74,2.65 -4.4,4.76 -8,6.34 -3.59,1.58 -8.01,2.36 -13.24,2.36z"/>
  </g>
 </g>
</svg>
