<?xml version="1.0" encoding="UTF-8"?>
<!DOCTYPE svg PUBLIC "-//W3C//DTD SVG 1.1//EN" "http://www.w3.org/Graphics/SVG/1.1/DTD/svg11.dtd">
<!-- Creator: CorelDRAW 2019 (64 Bit) -->
<svg xmlns="http://www.w3.org/2000/svg" xml:space="preserve" width="3045px" height="567px" version="1.1" style="shape-rendering:geometricPrecision; text-rendering:geometricPrecision; image-rendering:optimizeQuality; fill-rule:evenodd; clip-rule:evenodd"
viewBox="0 0 2115.55 394.17"
 xmlns:xlink="http://www.w3.org/1999/xlink">
 <defs>
  <style type="text/css">
   <![CDATA[
    .fil1 {fill:#2C3E50;fill-rule:nonzero}
    .fil0 {fill:url(#id0)}
   ]]>
  </style>
  <linearGradient id="id0" gradientUnits="userSpaceOnUse" x1="191.43" y1="197.07" x2="920.79" y2="197.07">
   <stop offset="0" style="stop-opacity:1; stop-color:#22A6B3"/>
   <stop offset="1" style="stop-opacity:1; stop-color:#BADC58"/>
  </linearGradient>
 </defs>
 <g id="Camada_x0020_1">
  <metadata id="CorelCorpID_0Corel-Layer"/>
  <path class="fil0" d="M440.86 107.84c0,-11.41 9.25,-20.66 20.66,-20.66 11.4,0 20.65,9.25 20.65,20.66l0 178.5c0,11.4 -9.25,20.65 -20.65,20.65 -11.41,0 -20.66,-9.25 -20.66,-20.65l0 -178.5zm-73.83 -44.53c0,-11.4 9.25,-20.65 20.66,-20.65 11.4,0 20.65,9.25 20.65,20.65l0 194.67c0,11.41 -9.25,20.66 -20.65,20.66 -11.41,0 -20.66,-9.25 -20.66,-20.66l0 -194.67zm-73.83 76.31c0,-11.41 9.24,-20.66 20.65,-20.66 11.41,0 20.65,9.25 20.65,20.66l0 114.94c0,11.4 -9.24,20.65 -20.65,20.65 -11.41,0 -20.65,-9.25 -20.65,-20.65l0 -114.94zm-73.83 -57.61c0,-11.4 9.24,-20.65 20.65,-20.65 11.4,0 20.65,9.25 20.65,20.65l0 230.15c0,11.41 -9.25,20.65 -20.65,20.65 -11.41,0 -20.65,-9.24 -20.65,-20.65l0 -230.15zm-73.84 36.19c0,-11.41 9.25,-20.65 20.66,-20.65 11.4,0 20.65,9.24 20.65,20.65l0 230.27c0,11.4 -9.25,20.65 -20.65,20.65 -11.41,0 -20.66,-9.25 -20.66,-20.65l0 -230.27zm-145.53 -24.27c0,-11.4 9.25,-20.65 20.65,-20.65 11.41,0 20.65,9.25 20.65,20.65l0 206.31c0,11.41 -9.24,20.66 -20.65,20.66 -11.4,0 -20.65,-9.25 -20.65,-20.66l0 -206.31zm830.38 214.99c8.24,-7.84 21.28,-7.51 29.12,0.72 7.84,8.24 7.52,21.29 -0.72,29.12 -18.33,17.46 -39.97,31.5 -63.88,41.07 -23.13,9.25 -48.28,14.34 -74.49,14.34 -26.22,0 -51.37,-5.09 -74.5,-14.34 -23.91,-9.57 -45.55,-23.6 -63.88,-41.06 -8.23,-7.84 -8.56,-20.88 -0.72,-29.12 7.84,-8.24 20.88,-8.56 29.12,-0.72 14.59,13.89 31.8,25.06 50.81,32.66 18.19,7.27 38.15,11.28 59.17,11.28 21.01,0 40.98,-4.01 59.17,-11.28 19,-7.61 36.22,-18.77 50.8,-32.67zm-65.26 -268.58c-10.91,-3.16 -17.2,-14.57 -14.04,-25.49 3.16,-10.91 14.58,-17.19 25.49,-14.03 42.24,12.3 78.73,38.11 104.45,72.41 25.17,33.58 40.09,75.22 40.09,120.24 0,8.31 -0.51,16.56 -1.52,24.71 -1,8.15 -2.52,16.26 -4.53,24.27 -2.76,11.05 -13.96,17.77 -25.01,15.01 -11.05,-2.76 -17.76,-13.96 -15,-25.01 1.54,-6.18 2.75,-12.62 3.56,-19.27 0.79,-6.41 1.2,-12.99 1.2,-19.71 0,-35.93 -11.8,-69 -31.7,-95.55 -20.45,-27.29 -49.45,-47.81 -82.99,-57.58zm-199.35 192.11c2.76,11.05 -3.96,22.25 -15.01,25.01 -11.04,2.76 -22.24,-3.96 -25,-15.01 -2.01,-8 -3.54,-16.11 -4.54,-24.27 -1,-8.14 -1.52,-16.4 -1.52,-24.71 0,-45.02 14.93,-86.66 40.09,-120.24 25.72,-34.3 62.21,-60.11 104.45,-72.41 10.92,-3.16 22.33,3.12 25.49,14.03 3.16,10.92 -3.12,22.33 -14.03,25.49 -33.54,9.77 -62.54,30.29 -83,57.58 -19.9,26.55 -31.69,59.62 -31.69,95.55 0,6.72 0.41,13.31 1.19,19.71 0.82,6.65 2.02,13.1 3.57,19.27zm211.83 21.48c8.24,-7.84 21.28,-7.52 29.12,0.72 7.84,8.24 7.51,21.28 -0.73,29.12 -11.33,10.74 -24.75,19.39 -39.6,25.31 -14.35,5.72 -29.88,8.87 -45.98,8.87 -16.1,0 -31.63,-3.15 -45.99,-8.87 -14.85,-5.91 -28.26,-14.57 -39.6,-25.3 -8.24,-7.84 -8.56,-20.89 -0.73,-29.12 7.84,-8.24 20.89,-8.57 29.12,-0.73 7.62,7.21 16.57,13 26.38,16.91 9.4,3.74 19.79,5.81 30.82,5.81 11.03,0 21.42,-2.07 30.81,-5.81 9.82,-3.91 18.76,-9.69 26.38,-16.91zm-33.72 -140.36c-10.91,-3.16 -17.19,-14.58 -14.03,-25.49 3.16,-10.91 14.57,-17.2 25.49,-14.04 26.17,7.66 48.78,23.66 64.69,44.91 15.61,20.85 24.86,46.65 24.86,74.52 0,5.21 -0.34,10.4 -0.97,15.5 -0.65,5.24 -1.63,10.37 -2.9,15.34 -2.81,11.05 -14.04,17.73 -25.09,14.93 -11.05,-2.81 -17.73,-14.05 -14.92,-25.09 0.85,-3.33 1.5,-6.73 1.93,-10.17 0.42,-3.41 0.64,-6.92 0.64,-10.51 0,-18.78 -6.12,-36.03 -16.46,-49.83 -10.67,-14.25 -25.77,-24.97 -43.24,-30.07zm-104.07 100.58c2.8,11.05 -3.88,22.28 -14.92,25.09 -11.05,2.81 -22.29,-3.87 -25.09,-14.92 -1.27,-4.98 -2.25,-10.11 -2.9,-15.34 -0.64,-5.11 -0.97,-10.3 -0.97,-15.51 0,-27.87 9.24,-53.67 24.86,-74.52 15.91,-21.25 38.51,-37.25 64.69,-44.91 10.91,-3.16 22.33,3.13 25.49,14.04 3.16,10.91 -3.12,22.33 -14.04,25.49 -17.46,5.1 -32.57,15.82 -43.23,30.07 -10.34,13.8 -16.47,31.05 -16.47,49.83 0,3.59 0.23,7.1 0.65,10.51 0.42,3.44 1.08,6.85 1.93,10.17zm80.6 -64.59c24.25,0 43.91,19.65 43.91,43.91 0,24.25 -19.66,43.91 -43.91,43.91 -24.26,0 -43.91,-19.66 -43.91,-43.91 0,-24.26 19.65,-43.91 43.91,-43.91zm-648.5 -9.94c0,-11.41 9.25,-20.66 20.65,-20.66 11.41,0 20.66,9.25 20.66,20.66l0 114.94c0,11.4 -9.25,20.65 -20.66,20.65 -11.4,0 -20.65,-9.25 -20.65,-20.65l0 -114.94zm295.12 168.87c0,-11.4 9.25,-20.65 20.66,-20.65 11.4,0 20.65,9.25 20.65,20.65l0 19.46c0,11.4 -9.25,20.65 -20.65,20.65 -11.41,0 -20.66,-9.25 -20.66,-20.65l0 -19.46zm-221.5 -262.78c0,-11.41 9.25,-20.65 20.66,-20.65 11.4,0 20.65,9.24 20.65,20.65l0 19.45c0,11.41 -9.25,20.65 -20.65,20.65 -11.41,0 -20.66,-9.24 -20.66,-20.65l0 -19.45z"/>
  <g id="_2556663726256">
   <path class="fil1" d="M1181.72 11.67l-170.66 0c-8.28,0 -15.01,6.73 -15.01,15.01l0 7.59c0,8.28 6.73,15.01 15.01,15.01l48.88 0c8.28,0 14.94,6.72 14.94,15l0 173.3c0,8.28 6.73,15.01 15.01,15.01l12.31 0c8.28,0 14.95,-6.73 14.95,-15.01l0 -146.16c0,-8.62 -4.55,-16.56 -11.96,-20.87l-14.61 -8.45c-6.09,-3.51 -3.56,-12.82 3.45,-12.82l23.12 0 64.57 0c8.28,0 14.95,-6.67 14.95,-14.95l0 -7.65c0,-8.28 -6.67,-15.01 -14.95,-15.01l0 0z"/>
   <path id="1" class="fil1" d="M1221.74 182.1l96.65 0c8.97,0 16.27,-7.3 16.33,-16.27 0,-52.56 -35.94,-80.16 -76.53,-80.16 -44.56,0 -83.43,33.93 -83.43,85.79 0,51.23 38.58,85.1 91.13,85.1 16.62,0 34.5,-3.45 48.82,-9.55 6.67,-2.87 10.98,-9.37 10.98,-16.67 0,-10.93 -11.09,-18.34 -21.16,-14.15 -10.86,4.49 -22.54,7.13 -34.67,7.13 -25.41,0 -45.77,-11.84 -52.72,-35.01 -0.92,-3.11 1.38,-6.21 4.6,-6.21l0 0zm-4.14 -35.02c6.84,-19.72 23.57,-28.81 40.24,-28.81 16.51,0 32.78,9.2 37.95,29.04 0.92,3.45 -1.61,6.84 -5.23,6.84l-67.79 0c-3.74,0 -6.38,-3.62 -5.17,-7.07l0 0z"/>
   <path id="2" class="fil1" d="M1382.73 0l-10.23 0c-8.23,0 -14.9,6.73 -14.9,14.95l0 223.04c0,8.28 6.67,14.95 14.9,14.95l10.23 0c8.22,0 14.95,-6.67 14.95,-14.95l0 -223.04c0,-8.22 -6.73,-14.95 -14.95,-14.95z"/>
   <path id="3" class="fil1" d="M1467.71 182.1l96.66 0c8.97,0 16.27,-7.3 16.33,-16.27 0,-52.56 -35.94,-80.16 -76.53,-80.16 -44.56,0 -83.43,33.93 -83.43,85.79 0,51.23 38.58,85.1 91.13,85.1 16.62,0 34.5,-3.45 48.82,-9.55 6.67,-2.87 10.98,-9.37 10.98,-16.67 0,-10.93 -11.1,-18.34 -21.16,-14.15 -10.86,4.49 -22.54,7.13 -34.67,7.13 -25.41,0 -45.77,-11.84 -52.73,-35.01 -0.92,-3.11 1.39,-6.21 4.6,-6.21l0 0zm-4.13 -35.02c6.84,-19.72 23.57,-28.81 40.24,-28.81 16.51,0 32.78,9.2 37.95,29.04 0.92,3.45 -1.61,6.84 -5.23,6.84l-67.79 0c-3.74,0 -6.38,-3.62 -5.17,-7.07l0 0z"/>
   <path id="4" class="fil1" d="M1724.33 148.69c33.92,-8.34 53.53,-33.58 53.53,-66.18 0,-28.58 -14.95,-47.84 -34.55,-58.48 -18.98,-10.35 -42.9,-12.01 -67.51,-12.01l-55.14 0c-8.28,0 -15.01,6.72 -15.01,15l0 210.74c0,8.28 6.73,15 15.01,15l12.25 0c8.28,0 14.95,-6.72 14.95,-15l0 -78.83c0,-3.11 2.53,-5.58 5.63,-5.58l20.99 0c3.51,0 6.84,1.72 8.8,4.66l59.57 88.14c2.76,4.14 7.41,6.61 12.42,6.61l12.87 0c12.08,0 19.21,-13.62 12.31,-23.57l-56.12 -80.5zm-42.89 -27.94c-6.85,0 -13.4,2.99 -17.88,8.22l-9.78 11.33c-2.01,2.35 -5.86,0.86 -5.86,-2.25l0.05 -17.3 -0.11 0 0 -71.13 25.64 0c20.93,0 34.21,0.98 44.85,6.61 10.64,5.7 17.31,14.67 17.31,28.93 0,12.01 -4.66,20.29 -12.31,25.93 -9.66,7.01 -22.59,9.66 -41.91,9.66l0 0z"/>
   <path id="5" class="fil1" d="M1915.57 105.8c-11.96,-10.01 -30.36,-14.84 -51,-14.84 -19.9,0 -36.51,4.49 -48.82,10.41 -2.87,1.44 -4.71,4.31 -4.71,7.48l0 16.73c0,5.98 6.21,9.94 11.67,7.47 10.29,-4.66 22.54,-7.88 36.05,-7.88 11.96,0 20.99,2.53 26.8,7.71 5.11,4.83 7.7,11.9 7.76,21.5 0,4.78 -4.2,8.51 -8.91,7.71 -6.96,-1.15 -14.09,-1.78 -21.74,-1.78 -16.5,0 -32.6,2.87 -44.56,10.98 -11.9,8.05 -20.3,20.93 -20.3,38.35 0,15.81 6.79,28.4 17.77,36.45 10.64,7.77 23.86,10.64 36.74,10.64 5.18,0 10.06,-0.4 14.61,-1.21 9.77,-1.66 18.22,-7.7 23.34,-16.21l8.11 -13.57c1.44,-2.47 5.17,-1.78 5.63,1.03l0.64 13.23c0.34,7.42 6.44,13.22 13.8,13.22 7.64,0 13.85,-6.21 13.85,-13.85l0 -91.31c0,-19.67 -6.09,-33.24 -16.73,-42.26l0 0zm-22.25 102.63c0,5.06 -2.88,9.83 -7.48,11.96 -6.9,3.22 -15.29,5.41 -23.86,5.41 -13.86,0 -25.13,-6.16 -25.13,-19.04 0,-15.46 15.82,-20.64 31.92,-20.64 5.75,0 12.47,0.69 18.51,1.84 3.51,0.69 6.04,3.68 6.04,7.25l0 13.22 0 0z"/>
   <path id="6" class="fil1" d="M2100.71 0.17l-10.34 0c-8.23,0 -14.84,6.62 -14.84,14.84l0 78.48 -0.69 0.29c-9.6,-4.31 -20.81,-7.24 -35.07,-7.24 -49.97,0 -86.02,37.37 -86.02,87.97 0,49.96 35.42,82.05 78.08,82.05l0.23 0c12.19,0 23.46,-6.5 29.61,-17.02l7.59 -13.11c1.73,-2.93 6.27,-1.73 6.27,1.72l0 15.36 0.29 0.17c0,5.12 4.2,9.26 9.26,9.26l21.21 0c5.12,0 9.26,-4.14 9.26,-9.26l0 -228.67c0,-8.22 -6.67,-14.84 -14.84,-14.84l0 0zm-25.18 203.26c0,5.35 -3.05,10.23 -7.82,12.65 -8.11,3.97 -17.48,6.73 -27.6,6.73 -29.09,0 -46,-22.14 -46,-50.26 0,-29.15 17.89,-51.98 48.3,-51.98 8.45,0 16.56,1.73 23.86,4.37 5.58,1.96 9.26,7.31 9.26,13.23l0 65.26z"/>
   <polygon class="fil1" points="1115.15,326.96 1118.73,326.96 1118.73,372.82 1146.99,372.82 1146.99,376.05 1115.15,376.05 "/>
   <path id="1" class="fil1" d="M1194.55 362.23l-28.47 0 -6.24 13.82 -3.86 0 22.58 -49.09 3.58 0 22.58 49.09 -3.86 0 -6.31 -13.82zm-1.33 -3.01l-12.9 -28.33 -12.84 28.33 25.74 0z"/>
   <path id="2" class="fil1" d="M1239.73 376.4c-6.21,0 -11.04,-1.8 -14.48,-5.4 -3.43,-3.6 -5.15,-8.86 -5.15,-15.78l0 -28.26 3.58 0 0 28.12c0,6.03 1.37,10.54 4.13,13.54 2.76,2.99 6.76,4.48 11.99,4.48 5.19,0 9.17,-1.49 11.93,-4.48 2.75,-3 4.13,-7.51 4.13,-13.54l0 -28.12 3.58 0 0 28.26c0,6.92 -1.73,12.18 -5.19,15.78 -3.46,3.6 -8.3,5.4 -14.52,5.4z"/>
   <path id="3" class="fil1" d="M1284.07 326.96l19.43 0c5.09,0 9.62,1.05 13.57,3.16 3.95,2.1 7.02,5.01 9.22,8.73 2.2,3.71 3.3,7.93 3.3,12.66 0,4.72 -1.1,8.94 -3.3,12.65 -2.2,3.72 -5.27,6.63 -9.22,8.73 -3.95,2.11 -8.48,3.16 -13.57,3.16l-19.43 0 0 -49.09zm19.15 45.86c4.53,0 8.53,-0.9 11.99,-2.7 3.46,-1.8 6.12,-4.31 7.99,-7.54 1.87,-3.22 2.81,-6.91 2.81,-11.07 0,-4.17 -0.94,-7.86 -2.81,-11.08 -1.87,-3.23 -4.53,-5.74 -7.99,-7.54 -3.46,-1.8 -7.46,-2.7 -11.99,-2.7l-15.57 0 0 42.63 15.57 0z"/>
   <path id="4" class="fil1" d="M1370.77 376.4c-4.82,0 -9.16,-1.09 -13.04,-3.26 -3.88,-2.18 -6.93,-5.16 -9.15,-8.94 -2.23,-3.79 -3.34,-8.02 -3.34,-12.69 0,-4.68 1.11,-8.91 3.34,-12.7 2.22,-3.78 5.27,-6.76 9.15,-8.94 3.88,-2.17 8.22,-3.26 13.04,-3.26 4.82,0 9.16,1.08 13.04,3.23 3.88,2.15 6.93,5.12 9.15,8.9 2.22,3.79 3.34,8.04 3.34,12.77 0,4.72 -1.12,8.97 -3.34,12.76 -2.22,3.78 -5.27,6.75 -9.15,8.9 -3.88,2.15 -8.22,3.23 -13.04,3.23zm0 -3.3c4.11,0 7.83,-0.93 11.15,-2.8 3.32,-1.87 5.94,-4.46 7.85,-7.75 1.92,-3.3 2.88,-6.98 2.88,-11.04 0,-4.07 -0.96,-7.75 -2.88,-11.05 -1.91,-3.3 -4.53,-5.88 -7.85,-7.75 -3.32,-1.87 -7.04,-2.8 -11.15,-2.8 -4.11,0 -7.84,0.93 -11.19,2.8 -3.34,1.87 -5.97,4.45 -7.88,7.75 -1.92,3.3 -2.88,6.98 -2.88,11.05 0,4.06 0.96,7.74 2.88,11.04 1.91,3.29 4.54,5.88 7.88,7.75 3.35,1.87 7.08,2.8 11.19,2.8z"/>
   <path id="5" class="fil1" d="M1429.56 376.4c-3.6,0 -7.03,-0.62 -10.28,-1.86 -3.25,-1.24 -5.78,-2.84 -7.61,-4.8l1.62 -2.67c1.73,1.83 4.05,3.31 6.97,4.46 2.93,1.14 6,1.71 9.23,1.71 4.67,0 8.2,-0.88 10.59,-2.66 2.38,-1.78 3.57,-4.09 3.57,-6.94 0,-2.2 -0.63,-3.95 -1.89,-5.26 -1.26,-1.31 -2.83,-2.32 -4.7,-3.02 -1.87,-0.7 -4.39,-1.42 -7.57,-2.17 -3.6,-0.89 -6.49,-1.76 -8.66,-2.6 -2.18,-0.84 -4.02,-2.14 -5.54,-3.89 -1.52,-1.75 -2.28,-4.1 -2.28,-7.05 0,-2.38 0.63,-4.57 1.89,-6.55 1.26,-1.99 3.19,-3.57 5.79,-4.74 2.59,-1.16 5.83,-1.75 9.71,-1.75 2.71,0 5.37,0.4 7.99,1.19 2.62,0.8 4.89,1.87 6.8,3.23l-1.33 2.87c-1.96,-1.35 -4.12,-2.38 -6.48,-3.08 -2.37,-0.7 -4.69,-1.05 -6.98,-1.05 -4.54,0 -7.97,0.91 -10.31,2.73 -2.34,1.82 -3.51,4.19 -3.51,7.08 0,2.2 0.63,3.95 1.9,5.26 1.26,1.31 2.83,2.32 4.69,3.02 1.88,0.7 4.42,1.45 7.65,2.24 3.6,0.89 6.47,1.76 8.62,2.6 2.15,0.84 3.99,2.11 5.51,3.82 1.52,1.7 2.28,4.01 2.28,6.91 0,2.38 -0.65,4.55 -1.93,6.52 -1.29,1.96 -3.26,3.53 -5.93,4.7 -2.66,1.16 -5.93,1.75 -9.81,1.75z"/>
   <polygon id="6" class="fil1" points="1537.22,372.82 1537.22,376.05 1503.35,376.05 1503.35,326.96 1536.17,326.96 1536.17,330.19 1506.93,330.19 1506.93,349.54 1533.08,349.54 1533.08,352.7 1506.93,352.7 1506.93,372.82 "/>
   <path id="7" class="fil1" d="M1607.16 376.4c-3.6,0 -7.03,-0.62 -10.28,-1.86 -3.25,-1.24 -5.78,-2.84 -7.61,-4.8l1.62 -2.67c1.73,1.83 4.05,3.31 6.97,4.46 2.93,1.14 6,1.71 9.22,1.71 4.68,0 8.21,-0.88 10.59,-2.66 2.39,-1.78 3.58,-4.09 3.58,-6.94 0,-2.2 -0.63,-3.95 -1.89,-5.26 -1.26,-1.31 -2.83,-2.32 -4.7,-3.02 -1.87,-0.7 -4.4,-1.42 -7.58,-2.17 -3.59,-0.89 -6.48,-1.76 -8.65,-2.6 -2.18,-0.84 -4.03,-2.14 -5.55,-3.89 -1.51,-1.75 -2.27,-4.1 -2.27,-7.05 0,-2.38 0.63,-4.57 1.89,-6.55 1.26,-1.99 3.19,-3.57 5.78,-4.74 2.6,-1.16 5.84,-1.75 9.72,-1.75 2.71,0 5.37,0.4 7.99,1.19 2.62,0.8 4.89,1.87 6.8,3.23l-1.33 2.87c-1.96,-1.35 -4.12,-2.38 -6.49,-3.08 -2.36,-0.7 -4.68,-1.05 -6.97,-1.05 -4.54,0 -7.97,0.91 -10.31,2.73 -2.34,1.82 -3.51,4.19 -3.51,7.08 0,2.2 0.63,3.95 1.9,5.26 1.26,1.31 2.82,2.32 4.69,3.02 1.87,0.7 4.42,1.45 7.65,2.24 3.6,0.89 6.47,1.76 8.62,2.6 2.15,0.84 3.99,2.11 5.51,3.82 1.52,1.7 2.28,4.01 2.28,6.91 0,2.38 -0.65,4.55 -1.93,6.52 -1.29,1.96 -3.26,3.53 -5.93,4.7 -2.66,1.16 -5.93,1.75 -9.81,1.75z"/>
   <polygon id="8" class="fil1" points="1678.77,372.82 1678.77,376.05 1644.9,376.05 1644.9,326.96 1677.72,326.96 1677.72,330.19 1648.48,330.19 1648.48,349.54 1674.64,349.54 1674.64,352.7 1648.48,352.7 1648.48,372.82 "/>
   <path id="9" class="fil1" d="M1733.84 376.05l-11.71 -16.41c-1.73,0.23 -3.32,0.35 -4.77,0.35l-14.02 0 0 16.06 -3.58 0 0 -49.09 17.6 0c6.18,0 11.01,1.46 14.52,4.38 3.51,2.93 5.26,6.98 5.26,12.17 0,3.88 -0.99,7.14 -2.98,9.78 -1.99,2.64 -4.83,4.5 -8.52,5.58l12.27 17.18 -4.07 0zm-16.48 -19.22c5.24,0 9.24,-1.15 12,-3.47 2.75,-2.31 4.13,-5.6 4.13,-9.85 0,-4.25 -1.38,-7.54 -4.13,-9.85 -2.76,-2.32 -6.76,-3.47 -12,-3.47l-14.02 0 0 26.64 14.02 0z"/>
   <polygon id="10" class="fil1" points="1797.4,326.96 1775.52,376.05 1771.94,376.05 1750.06,326.96 1753.99,326.96 1773.84,371.42 1793.68,326.96 "/>
   <polygon id="11" class="fil1" points="1813.27,326.96 1816.84,326.96 1816.84,376.05 1813.27,376.05 "/>
   <path id="12" class="fil1" d="M1862.66 376.4c-4.82,0 -9.15,-1.08 -13.01,-3.23 -3.86,-2.15 -6.9,-5.12 -9.12,-8.9 -2.22,-3.79 -3.33,-8.04 -3.33,-12.76 0,-4.73 1.11,-8.98 3.33,-12.77 2.22,-3.78 5.26,-6.75 9.12,-8.9 3.86,-2.15 8.19,-3.23 13.01,-3.23 3.55,0 6.82,0.57 9.81,1.72 3,1.14 5.55,2.84 7.65,5.08l-2.25 2.32c-3.92,-3.88 -8.95,-5.82 -15.07,-5.82 -4.12,0 -7.86,0.93 -11.22,2.8 -3.37,1.87 -6.01,4.45 -7.93,7.75 -1.91,3.3 -2.87,6.98 -2.87,11.05 0,4.06 0.96,7.74 2.87,11.04 1.92,3.29 4.56,5.88 7.93,7.75 3.36,1.87 7.1,2.8 11.22,2.8 6.08,0 11.1,-1.96 15.07,-5.89l2.25 2.32c-2.1,2.24 -4.66,3.95 -7.68,5.12 -3.02,1.16 -6.28,1.75 -9.78,1.75zm-2.25 14.87c-2.19,0 -4.04,-0.59 -5.54,-1.76l0.99 -1.96c1.26,0.98 2.78,1.47 4.55,1.47 1.41,0 2.53,-0.33 3.37,-0.98 0.84,-0.65 1.26,-1.57 1.26,-2.74 0,-1.07 -0.4,-1.94 -1.19,-2.59 -0.8,-0.65 -1.94,-0.98 -3.44,-0.98l-1.4 0 1.61 -6.1 2.32 0 -1.12 4.21c1.87,0.14 3.33,0.71 4.38,1.71 1.05,1.01 1.58,2.31 1.58,3.9 0,1.77 -0.69,3.19 -2.07,4.24 -1.38,1.05 -3.15,1.58 -5.3,1.58z"/>
   <path id="13" class="fil1" d="M1919.83 376.4c-4.81,0 -9.16,-1.09 -13.04,-3.26 -3.88,-2.18 -6.93,-5.16 -9.15,-8.94 -2.22,-3.79 -3.33,-8.02 -3.33,-12.69 0,-4.68 1.11,-8.91 3.33,-12.7 2.22,-3.78 5.27,-6.76 9.15,-8.94 3.88,-2.17 8.23,-3.26 13.04,-3.26 4.82,0 9.16,1.08 13.04,3.23 3.88,2.15 6.93,5.12 9.15,8.9 2.23,3.79 3.34,8.04 3.34,12.77 0,4.72 -1.11,8.97 -3.34,12.76 -2.22,3.78 -5.27,6.75 -9.15,8.9 -3.88,2.15 -8.22,3.23 -13.04,3.23zm0 -3.3c4.11,0 7.83,-0.93 11.15,-2.8 3.32,-1.87 5.94,-4.46 7.85,-7.75 1.92,-3.3 2.88,-6.98 2.88,-11.04 0,-4.07 -0.96,-7.75 -2.88,-11.05 -1.91,-3.3 -4.53,-5.88 -7.85,-7.75 -3.32,-1.87 -7.04,-2.8 -11.15,-2.8 -4.11,0 -7.84,0.93 -11.18,2.8 -3.35,1.87 -5.98,4.45 -7.89,7.75 -1.92,3.3 -2.88,6.98 -2.88,11.05 0,4.06 0.96,7.74 2.88,11.04 1.91,3.29 4.54,5.88 7.89,7.75 3.34,1.87 7.07,2.8 11.18,2.8z"/>
   <path id="14" class="fil1" d="M1978.62 376.4c-3.6,0 -7.03,-0.62 -10.28,-1.86 -3.25,-1.24 -5.78,-2.84 -7.6,-4.8l1.61 -2.67c1.73,1.83 4.05,3.31 6.98,4.46 2.92,1.14 5.99,1.71 9.22,1.71 4.67,0 8.2,-0.88 10.59,-2.66 2.38,-1.78 3.57,-4.09 3.57,-6.94 0,-2.2 -0.63,-3.95 -1.89,-5.26 -1.26,-1.31 -2.83,-2.32 -4.7,-3.02 -1.87,-0.7 -4.39,-1.42 -7.57,-2.17 -3.6,-0.89 -6.49,-1.76 -8.66,-2.6 -2.18,-0.84 -4.02,-2.14 -5.54,-3.89 -1.52,-1.75 -2.28,-4.1 -2.28,-7.05 0,-2.38 0.63,-4.57 1.89,-6.55 1.26,-1.99 3.19,-3.57 5.79,-4.74 2.59,-1.16 5.83,-1.75 9.71,-1.75 2.71,0 5.37,0.4 7.99,1.19 2.62,0.8 4.89,1.87 6.8,3.23l-1.33 2.87c-1.96,-1.35 -4.12,-2.38 -6.48,-3.08 -2.37,-0.7 -4.69,-1.05 -6.98,-1.05 -4.54,0 -7.97,0.91 -10.31,2.73 -2.34,1.82 -3.51,4.19 -3.51,7.08 0,2.2 0.64,3.95 1.9,5.26 1.26,1.31 2.83,2.32 4.7,3.02 1.87,0.7 4.41,1.45 7.64,2.24 3.6,0.89 6.47,1.76 8.62,2.6 2.15,0.84 3.99,2.11 5.51,3.82 1.52,1.7 2.28,4.01 2.28,6.91 0,2.38 -0.64,4.55 -1.93,6.52 -1.29,1.96 -3.26,3.53 -5.93,4.7 -2.66,1.16 -5.93,1.75 -9.81,1.75z"/>
  </g>
 </g>
</svg>
