<?xml version="1.0" encoding="UTF-8"?>
<!DOCTYPE svg PUBLIC "-//W3C//DTD SVG 1.1//EN" "http://www.w3.org/Graphics/SVG/1.1/DTD/svg11.dtd">
<!-- Creator: CorelDRAW 2019 (64 Bit) -->
<svg xmlns="http://www.w3.org/2000/svg" xml:space="preserve" width="1326px" height="567px" version="1.1" style="shape-rendering:geometricPrecision; text-rendering:geometricPrecision; image-rendering:optimizeQuality; fill-rule:evenodd; clip-rule:evenodd"
viewBox="0 0 401.12 171.65"
 xmlns:xlink="http://www.w3.org/1999/xlink">
 <defs>
  <style type="text/css">
   <![CDATA[
    .fil0 {fill:url(#id0)}
   ]]>
  </style>
  <linearGradient id="id0" gradientUnits="userSpaceOnUse" x1="83.36" y1="85.82" x2="400.97" y2="85.82">
   <stop offset="0" style="stop-opacity:1; stop-color:#22A6B3"/>
   <stop offset="1" style="stop-opacity:1; stop-color:#BADC58"/>
  </linearGradient>
 </defs>
 <g id="Camada_x0020_1">
  <metadata id="CorelCorpID_0Corel-Layer"/>
  <path class="fil0" d="M191.98 46.96c0,-4.97 4.03,-8.99 9,-8.99 4.96,0 8.99,4.02 8.99,8.99l0 77.73c0,4.97 -4.03,9 -8.99,9 -4.97,0 -9,-4.03 -9,-9l0 -77.73zm-32.15 -19.39c0,-4.97 4.03,-8.99 8.99,-8.99 4.97,0 9,4.02 9,8.99l0 84.77c0,4.97 -4.03,9 -9,9 -4.96,0 -8.99,-4.03 -8.99,-9l0 -84.77zm-32.15 33.23c0,-4.97 4.02,-8.99 8.99,-8.99 4.97,0 9,4.02 9,8.99l0 50.05c0,4.97 -4.03,9 -9,9 -4.97,0 -8.99,-4.03 -8.99,-9l0 -50.05zm-32.15 -25.09c0,-4.96 4.02,-8.99 8.99,-8.99 4.97,0 8.99,4.03 8.99,8.99l0 100.23c0,4.96 -4.02,8.99 -8.99,8.99 -4.97,0 -8.99,-4.03 -8.99,-8.99l0 -100.23zm-32.15 15.76c0,-4.97 4.02,-8.99 8.99,-8.99 4.97,0 8.99,4.02 8.99,8.99l0 100.28c0,4.96 -4.02,8.99 -8.99,8.99 -4.97,0 -8.99,-4.03 -8.99,-8.99l0 -100.28zm-63.38 -10.57c0,-4.96 4.03,-8.99 8.99,-8.99 4.97,0 9,4.03 9,8.99l0 89.85c0,4.96 -4.03,8.99 -9,8.99 -4.96,0 -8.99,-4.03 -8.99,-8.99l0 -89.85zm361.6 93.62c3.59,-3.41 9.27,-3.27 12.69,0.32 3.41,3.59 3.27,9.27 -0.32,12.68 -7.98,7.6 -17.4,13.72 -27.81,17.88 -10.08,4.03 -21.03,6.25 -32.45,6.25 -11.41,0 -22.36,-2.22 -32.44,-6.25 -10.41,-4.16 -19.83,-10.27 -27.81,-17.88 -3.59,-3.41 -3.73,-9.09 -0.32,-12.68 3.42,-3.58 9.1,-3.72 12.68,-0.31 6.35,6.05 13.85,10.91 22.13,14.22 7.92,3.17 16.61,4.91 25.76,4.91 9.16,0 17.85,-1.74 25.77,-4.91 8.28,-3.31 15.77,-8.17 22.12,-14.23zm-28.41 -116.95c-4.76,-1.38 -7.49,-6.35 -6.12,-11.1 1.38,-4.75 6.35,-7.49 11.1,-6.11 18.4,5.35 34.29,16.59 45.49,31.53 10.96,14.62 17.46,32.75 17.46,52.36 0,3.62 -0.23,7.21 -0.67,10.76 -0.43,3.55 -1.1,7.08 -1.97,10.57 -1.2,4.81 -6.08,7.74 -10.89,6.53 -4.81,-1.2 -7.74,-6.07 -6.54,-10.89 0.68,-2.69 1.2,-5.49 1.56,-8.39 0.34,-2.79 0.52,-5.66 0.52,-8.58 0,-15.65 -5.14,-30.05 -13.8,-41.61 -8.91,-11.88 -21.54,-20.82 -36.14,-25.07zm-86.82 83.65c1.21,4.82 -1.72,9.69 -6.53,10.89 -4.81,1.21 -9.69,-1.72 -10.89,-6.53 -0.87,-3.49 -1.54,-7.02 -1.98,-10.57 -0.43,-3.55 -0.66,-7.14 -0.66,-10.76 0,-19.61 6.5,-37.74 17.46,-52.36 11.2,-14.94 27.09,-26.18 45.49,-31.53 4.75,-1.38 9.72,1.36 11.1,6.11 1.37,4.75 -1.36,9.72 -6.12,11.1 -14.6,4.25 -27.23,13.19 -36.14,25.07 -8.66,11.56 -13.8,25.96 -13.8,41.61 0,2.93 0.18,5.79 0.52,8.59 0.36,2.89 0.88,5.7 1.55,8.38zm92.25 9.36c3.59,-3.42 9.27,-3.27 12.68,0.31 3.41,3.59 3.27,9.27 -0.32,12.68 -4.93,4.68 -10.77,8.45 -17.24,11.03 -6.25,2.49 -13.01,3.86 -20.03,3.86 -7.01,0 -13.77,-1.37 -20.02,-3.86 -6.47,-2.58 -12.31,-6.35 -17.25,-11.02 -3.58,-3.42 -3.73,-9.1 -0.31,-12.69 3.41,-3.58 9.09,-3.72 12.68,-0.31 3.32,3.14 7.21,5.66 11.48,7.36 4.1,1.63 8.62,2.53 13.42,2.53 4.81,0 9.33,-0.9 13.42,-2.53 4.28,-1.7 8.17,-4.22 11.49,-7.36zm-14.68 -61.13c-4.75,-1.37 -7.49,-6.34 -6.12,-11.1 1.38,-4.75 6.35,-7.48 11.1,-6.11 11.4,3.34 21.25,10.31 28.18,19.56 6.8,9.08 10.82,20.32 10.82,32.45 0,2.27 -0.14,4.53 -0.42,6.75 -0.28,2.28 -0.71,4.52 -1.26,6.68 -1.22,4.81 -6.12,7.72 -10.93,6.5 -4.81,-1.22 -7.72,-6.12 -6.5,-10.93 0.37,-1.44 0.66,-2.93 0.84,-4.43 0.19,-1.48 0.29,-3.01 0.29,-4.57 0,-8.18 -2.67,-15.69 -7.18,-21.7 -4.64,-6.2 -11.22,-10.87 -18.82,-13.1zm-45.32 43.81c1.22,4.81 -1.69,9.7 -6.5,10.92 -4.81,1.22 -9.71,-1.69 -10.93,-6.5 -0.55,-2.16 -0.98,-4.4 -1.26,-6.68 -0.28,-2.22 -0.42,-4.48 -0.42,-6.75 0,-12.13 4.02,-23.37 10.82,-32.45 6.93,-9.25 16.77,-16.22 28.17,-19.56 4.76,-1.37 9.73,1.36 11.1,6.11 1.38,4.76 -1.36,9.73 -6.11,11.1 -7.6,2.23 -14.18,6.9 -18.82,13.1 -4.51,6.01 -7.18,13.52 -7.18,21.7 0,1.56 0.1,3.09 0.29,4.58 0.18,1.49 0.47,2.98 0.84,4.43zm35.09 -28.13c10.57,0 19.13,8.56 19.13,19.12 0,10.56 -8.56,19.12 -19.13,19.12 -10.56,0 -19.12,-8.56 -19.12,-19.12 0,-10.56 8.56,-19.12 19.12,-19.12zm-282.39 -4.33c0,-4.97 4.02,-8.99 8.99,-8.99 4.97,0 8.99,4.02 8.99,8.99l0 50.05c0,4.97 -4.02,9 -8.99,9 -4.97,0 -8.99,-4.03 -8.99,-9l0 -50.05zm128.51 73.54c0,-4.97 4.03,-8.99 8.99,-8.99 4.97,0 9,4.02 9,8.99l0 8.47c0,4.97 -4.03,8.99 -9,8.99 -4.96,0 -8.99,-4.02 -8.99,-8.99l0 -8.47zm-96.45 -114.44c0,-4.96 4.02,-8.99 8.99,-8.99 4.97,0 8.99,4.03 8.99,8.99l0 8.47c0,4.97 -4.02,9 -8.99,9 -4.97,0 -8.99,-4.03 -8.99,-9l0 -8.47z"/>
 </g>
</svg>
