<?xml version="1.0" encoding="UTF-8"?>
<!DOCTYPE svg PUBLIC "-//W3C//DTD SVG 1.1//EN" "http://www.w3.org/Graphics/SVG/1.1/DTD/svg11.dtd">
<!-- Creator: CorelDRAW 2019 (64 Bit) -->
<svg xmlns="http://www.w3.org/2000/svg" xml:space="preserve" width="1601px" height="571px" version="1.1" style="shape-rendering:geometricPrecision; text-rendering:geometricPrecision; image-rendering:optimizeQuality; fill-rule:evenodd; clip-rule:evenodd"
viewBox="0 0 516.95 184.44"
 xmlns:xlink="http://www.w3.org/1999/xlink">
 <defs>
  <style type="text/css">
   <![CDATA[
    .fil0 {fill:url(#id0)}
   ]]>
  </style>
  <linearGradient id="id0" gradientUnits="userSpaceOnUse" x1="107.44" y1="184.43" x2="516.77" y2="184.43">
   <stop offset="0" style="stop-opacity:1; stop-color:#22A6B3"/>
   <stop offset="1" style="stop-opacity:1; stop-color:#BADC58"/>
  </linearGradient>
 </defs>
 <g id="Camada_x0020_1">
  <metadata id="CorelCorpID_0Corel-Layer"/>
  <path class="fil0" d="M472.67 88.75c0,-12.23 9.91,-22.14 22.14,-22.14 12.23,0 22.14,9.91 22.14,22.14l0 95.69 -44.28 0 0 -95.69zm-79.16 -47.73c0,-12.23 9.92,-22.15 22.14,-22.15 12.23,0 22.15,9.92 22.15,22.15l0 143.42 -44.29 0 0 -143.42zm-79.16 81.81c0,-12.23 9.91,-22.15 22.14,-22.15 12.23,0 22.14,9.92 22.14,22.15l0 61.61 -44.28 0 0 -61.61zm-79.16 -61.76c0,-12.23 9.92,-22.14 22.14,-22.14 12.23,0 22.15,9.91 22.15,22.14l0 123.37 -44.29 0 0 -123.37zm-79.16 38.79c0,-12.23 9.92,-22.14 22.15,-22.14 12.22,0 22.14,9.91 22.14,22.14l0 84.58 -44.29 0 0 -84.58zm-156.03 -26.01c0,-12.23 9.92,-22.15 22.14,-22.15 12.23,0 22.15,9.92 22.15,22.15l0 110.59 -44.29 0 0 -110.59zm77.1 48.98c0,-12.23 9.91,-22.15 22.14,-22.15 12.23,0 22.14,9.92 22.14,22.15l0 61.61 -44.28 0 0 -61.61zm78.93 -100.69c0,-12.23 9.92,-22.14 22.15,-22.14 12.22,0 22.14,9.91 22.14,22.14l0 20.86c0,12.23 -9.92,22.14 -22.14,22.14 -12.23,0 -22.15,-9.91 -22.15,-22.14l0 -20.86z"/>
 </g>
</svg>
