<?xml version="1.0" encoding="UTF-8"?>
<!DOCTYPE svg PUBLIC "-//W3C//DTD SVG 1.1//EN" "http://www.w3.org/Graphics/SVG/1.1/DTD/svg11.dtd">
<!-- Creator: CorelDRAW 2019 (64 Bit) -->
<svg xmlns="http://www.w3.org/2000/svg" xml:space="preserve" width="1306px" height="924px" version="1.1" style="shape-rendering:geometricPrecision; text-rendering:geometricPrecision; image-rendering:optimizeQuality; fill-rule:evenodd; clip-rule:evenodd"
viewBox="0 0 197.28 139.55"
 xmlns:xlink="http://www.w3.org/1999/xlink">
 <defs>
  <style type="text/css">
   <![CDATA[
    .fil12 {fill:#9999FF}
    .fil3 {fill:#2E5B9A;fill-rule:nonzero}
    .fil8 {fill:#3E6BAB;fill-rule:nonzero}
    .fil6 {fill:#75A1DE;fill-rule:nonzero}
    .fil2 {fill:#96CFE0;fill-rule:nonzero}
    .fil1 {fill:#A2DFF2;fill-rule:nonzero}
    .fil7 {fill:#A86B48;fill-rule:nonzero}
    .fil10 {fill:#A8CEFF;fill-rule:nonzero}
    .fil13 {fill:#CCCCFF;fill-rule:nonzero}
    .fil5 {fill:#E38540;fill-rule:nonzero}
    .fil0 {fill:#E7F3FE;fill-rule:nonzero}
    .fil4 {fill:#F09959;fill-rule:nonzero}
    .fil9 {fill:#F0CEB4;fill-rule:nonzero}
    .fil11 {fill:#F7A96F;fill-rule:nonzero}
   ]]>
  </style>
 </defs>
 <g id="Camada_x0020_1">
  <metadata id="CorelCorpID_0Corel-Layer"/>
  <g id="_1905442202880">
   <path class="fil0" d="M185.79 138.81c0,0 16.39,-29.68 6.56,-57.93 -9.84,-28.24 -28.54,-21.54 -54.77,-50.26 -31.85,-34.87 -54.21,-36.79 -82.64,-21.54 -16.07,8.61 -14.95,40.57 -40.53,62.59 -23.06,19.85 -14.34,58.8 -2.2,64.06 12.13,5.27 26.66,3.56 26.66,3.56l146.92 -0.48z"/>
   <path class="fil1" d="M78.49 78.94c5.63,11.39 12.68,42.5 14.6,44.21 1.93,1.7 13.04,8.31 14.97,11.51 1.92,3.19 1.06,2.13 0.21,2.34 -0.86,0.21 -49.16,0.43 -49.16,0.43 0,0 5.56,-33.03 6.2,-33.25 0.64,-0.21 13.18,-25.24 13.18,-25.24z"/>
   <path class="fil2" d="M86.49 137.27c-8.87,0.06 -18.23,0.11 -23.39,0.14l7.06 -42.08c3.76,-7.27 8.33,-16.39 8.33,-16.39 0.71,1.44 1.44,3.19 2.18,5.15 0.74,31.6 -3.83,40.46 -0.4,46.09 2.68,4.39 5.12,6.36 6.22,7.09z"/>
   <path class="fil3" d="M2.81 139.54l192.68 0c0.99,0 1.79,-0.8 1.79,-1.79 0,-0.98 -0.8,-1.78 -1.79,-1.78l-192.68 0c-0.99,0 -1.79,0.8 -1.79,1.78 0,0.99 0.8,1.79 1.79,1.79z"/>
   <path class="fil1" d="M48.87 65.2c-8.02,7.39 -25.88,14.39 -25.88,14.39 0,0 -2.72,24.99 -0.86,39.15 1.85,14.15 0.82,17.02 0.82,17.02l36.82 0c0,0 4.94,-6.84 13.99,-28.1 5.76,-13.54 4.73,-28.72 4.73,-28.72l-22.42 -10.05 -7.2 -3.69z"/>
   <path class="fil2" d="M59.77 135.76l-36.82 0c0,0 1.03,-2.87 -0.82,-17.02 -1.53,-11.66 0.04,-30.66 0.64,-37.01l3.35 -1.43c8.41,2.41 13.26,14.92 14.68,27.14 0.95,8.17 14.54,16.22 23.42,20.65 -2.92,5.55 -4.45,7.67 -4.45,7.67z"/>
   <path class="fil3" d="M68.8 39.55c4.44,9.85 -0.89,18.99 -0.73,18.6 0.16,-0.38 -6.72,-16.64 -6.72,-16.64l7.45 -1.96z"/>
   <path class="fil4" d="M51.98 46.84l-5.63 20.51c-0.16,0.58 -0.02,1.2 0.36,1.66 1.32,1.63 3.2,4.96 6.99,6.03 0.74,0.21 1.65,0.26 2.38,0.27 0.77,0 1.44,-0.54 1.59,-1.3l3.77 -19.46 -9.46 -7.71z"/>
   <path class="fil5" d="M53.06 48.55l2.05 0.84 6.33 5.16 -3.4 17.25c-5.76,-3.58 -6.6,-5.99 -4.98,-23.25z"/>
   <path class="fil4" d="M52.19 55.91c1.24,6.75 6.31,11.31 11.31,10.2 5,-1.12 7.38,-5.49 6.8,-14.25 -0.46,-6.87 -3.86,-14.34 -8.86,-13.22 -5,1.12 -10.5,10.52 -9.25,17.27z"/>
   <path class="fil1" d="M22.99 79.59c-7.45,1.68 -8.84,16.76 -11.26,32.68 -0.28,1.83 -1.71,17.33 -1.71,17.33 0,0 -0.14,2.84 2.71,4.26 2.43,1.22 3.42,2.13 17.53,2.27 13.55,0.14 31.01,-0.42 31.01,-0.42 0,0 0.16,-5.03 -1.23,-7.48 -2.09,-3.7 -23.51,-9 -25.51,-9.29 -0.29,-3.97 1.97,-18.37 -1.14,-28.13 -2.14,-6.71 -4.43,-10.23 -7.31,-11.15 -0.96,-0.3 -1.99,-0.32 -3.09,-0.07z"/>
   <path class="fil2" d="M53.61 136.01c-6.68,0.1 -15.84,0.2 -23.35,0.12 -14.11,-0.14 -15.1,-1.05 -17.53,-2.27 -2.85,-1.42 -2.99,-3.83 -2.99,-3.83 0,0 1.44,-16.5 1.71,-18.33 1.56,-10.66 3.26,-22.85 7.2,-28.74 -3.71,10.83 -4.3,19.97 -4.37,23.87 -0.03,1.98 0.15,4.68 0.73,6.57 0.64,2.1 2.28,3.41 4.84,2.7 5.13,-1.42 11.54,1.56 11.54,1.56 0,0 -4.84,-1.7 -9.4,-0.14 -4.56,1.57 -13.96,11.94 -3.7,15.77 3.13,1.18 21.94,2.13 35.32,2.72z"/>
   <path class="fil2" d="M58.9 128.7c0,0 -1.9,-3.22 -5.8,-3.22 -3.89,0 -3.61,6.34 -3.04,8.43 0.57,2.08 2.85,2.18 2.85,2.18l8.36 -0.38 -2.37 -7.01z"/>
   <path class="fil6" d="M67.37 137.53l52.7 0c0.8,0 1.45,-0.64 1.45,-1.44l0 -0.41c0,-0.79 -0.65,-1.44 -1.45,-1.44l-52.7 0c-0.79,0 -1.44,0.65 -1.44,1.44l0 0.41c0,0.8 0.65,1.44 1.44,1.44z"/>
   <path class="fil4" d="M59.94 129.08c8.17,-2.94 10.31,-1.83 12.16,-2.37 4.56,-1.33 5.7,-0.19 8.65,7.86 0.58,1.61 -1.14,1.71 -2.86,1.71 -1.7,0 -3.79,-3.32 -4.46,-3.7 -0.66,-0.38 -2.47,-0.57 -2.47,-0.57 0,0 0.57,0 1.43,1.71 0.85,1.7 1.9,2.37 0.57,2.37 -1.33,0 -1.52,-2.18 -3.99,-1.71 -2.47,0.48 -1.52,1.71 -7.7,1.61 -6.17,-0.09 -10.83,0 -10.73,-3.69 0.09,-3.51 -0.3,-5.26 3.04,-5.87 2.56,-0.48 6.36,2.65 6.36,2.65z"/>
   <path class="fil7" d="M59.83 129.08c-5.46,-0.62 -3.85,6.17 -3.28,6.73 0.56,0.57 -3.04,0.2 -3.04,0.2 0,0 -1.7,-2.72 -0.28,-5.84 1.43,-3.13 4.28,-3.27 4.28,-3.27l2.42 1.33 -0.1 0.85z"/>
   <path class="fil3" d="M54.13 128.49c0.07,0.84 1.51,1.41 3.2,1.26 1.7,-0.14 3.02,-0.93 2.95,-1.77 -0.07,-0.85 -1.5,-1.41 -3.2,-1.27 -1.7,0.14 -3.02,0.94 -2.95,1.78z"/>
   <path class="fil8" d="M54.57 128.07c0.06,0.75 1.34,1.26 2.86,1.13 1.51,-0.13 2.69,-0.84 2.63,-1.59 -0.07,-0.75 -1.35,-1.26 -2.86,-1.13 -1.52,0.13 -2.7,0.84 -2.63,1.59z"/>
   <path class="fil9" d="M55.51 127.72c0.05,0.54 0.97,0.91 2.06,0.82 1.09,-0.1 1.94,-0.61 1.9,-1.15 -0.05,-0.54 -0.97,-0.9 -2.06,-0.81 -1.09,0.09 -1.94,0.6 -1.9,1.14z"/>
   <path class="fil6" d="M122 127.13l53.09 0c2.79,0 5.18,-2.02 5.69,-4.8l6.92 -38.1c0.66,-3.6 -2.07,-6.91 -5.69,-6.91l-53.09 0c-2.79,0 -5.18,2.02 -5.69,4.79l-6.92 38.11c-0.65,3.59 2.07,6.91 5.69,6.91z"/>
   <path class="fil10" d="M119.52 120.36l7.07 -37.32c0.51,-2.72 2.95,-4.69 5.8,-4.69l53.95 0c1.14,1.31 1.7,3.11 1.36,4.98l-7.17 38.9c-0.52,2.84 -3,4.9 -5.89,4.9l-49.31 0c-3.69,0 -6.48,-3.25 -5.81,-6.77z"/>
   <path class="fil6" d="M132.32 132.23l10.08 0c1.8,0 3.25,-1.6 3.25,-3.57l0 -18.37c0,-3.13 2.32,-5.67 5.18,-5.67l5.27 0c2.86,0 5.18,2.54 5.18,5.67l0 20.58c0,3.51 -2.62,6.36 -5.83,6.34l-27.5 -0.19c0,-2.65 1.95,-4.79 4.37,-4.79z"/>
   <path class="fil10" d="M160.88 110.7l0 20.26c0,3.3 -2.57,6 -5.81,6.23l-26.84 -0.17c0,-0.44 2.11,-1.23 4.73,-1.23l10.9 0c1.94,0 3.52,-1.58 3.52,-3.51l0 -21.58c0,-3.08 2.51,-5.58 5.6,-5.58l2.29 0c3.1,0 5.61,2.5 5.61,5.58z"/>
   <path class="fil4" d="M104.69 129.89c-4.06,-2.24 -9.02,-1.49 -10.82,0.75 -1.8,2.25 -2.1,3.75 1.96,3.75 4.05,0 12.16,0.3 13.52,0.15 1.35,-0.15 -4.66,-4.65 -4.66,-4.65z"/>
   <path class="fil4" d="M98.68 128.55c-4.36,-1.05 -7.33,1.48 -10.97,3.89 -3.15,2.1 -3.79,4.14 -0.3,2.4 5.11,-2.55 8.11,-2.85 8.11,-2.85l3.16 -3.44z"/>
   <path class="fil4" d="M102.65 129.88c2.2,0 4.12,-0.7 5.67,-0.57 1.56,0.13 6.47,5.16 5.7,5.55 -0.06,0.03 -0.12,0.05 -0.18,0.08 -1.17,0.42 -2.49,-0.05 -3.15,-1.1 -0.69,-1.12 -1.83,-2.41 -3.14,-1.95 -2.2,0.77 -4.51,0.7 -4.51,0.7l-0.39 -2.71z"/>
   <path class="fil11" d="M103.94 135.29c2.25,-0.9 -1.35,-8.39 -2.56,-8.39 -1.2,0 -5.71,3.59 -5.71,3.59 0,0 1.07,0.6 4.66,-0.6 0.9,-0.3 1.66,4.8 2.71,5.4 1.05,0.6 0.9,0 0.9,0z"/>
   <path class="fil3" d="M70.3 55.81c0.21,8.24 -2.61,9.64 -4.58,10.76 -1.97,1.12 -10.46,-0.73 -11.71,-2.77 -3.19,-5.22 -0.5,-10.09 -1.22,-10.01 -0.71,0.07 -1.36,2.1 -3.22,4.74 -0.17,0.24 -1.38,1.87 -1.45,1.33 -0.86,-7.38 -4.72,-9.68 -3.8,-17.15 0.68,-5.51 4.18,-5.07 4.18,-5.07 0,0 2.26,-4.61 9.31,-4.08 4.71,0.35 8.92,2.18 13.78,3.43 4.86,1.25 -5.75,12.24 -12.06,8.22 -6.31,-4.01 -3.19,4.83 -4.18,5.51 -1,0.69 -0.48,0.1 -0.94,4.62 -0.46,4.53 5.31,7.48 6.96,7.87 5.28,1.24 6.16,0.37 7.32,-1.61 1,-1.73 1.61,-5.79 1.61,-5.79z"/>
   <path class="fil4" d="M48.44 53.25c0.6,2.08 2.08,3.42 3.31,3 1.22,-0.42 1.25,-2.11 1.11,-4.53 -0.13,-2.18 -2.09,-3.42 -3.31,-3 -1.22,0.43 -1.72,2.45 -1.11,4.53z"/>
   <path class="fil12" d="M123.35 66.07l1.51 8.95 -7.26 -8.95 -20.72 0c-0.45,0 -0.82,-0.37 -0.82,-0.82l0 -44.55c0,-0.44 0.37,-0.81 0.82,-0.81l35.09 0c0.45,0 0.82,0.37 0.82,0.81l0 44.55c0,0.45 -0.37,0.82 -0.82,0.82l-8.62 0z"/>
   <path class="fil12" d="M156.05 55.86l-1.51 14.75 7.26 -14.75 20.73 0c0.45,0 0.82,-0.37 0.82,-0.82l0 -44.55c0,-0.45 -0.37,-0.81 -0.82,-0.81l-35.1 0c-0.45,0 -0.82,0.36 -0.82,0.81l0 44.55c0,0.45 0.37,0.82 0.82,0.82l8.62 0z"/>
   <path class="fil13" d="M150.63 22.69c-0.25,0 -0.45,-0.27 -0.45,-0.61 0,-0.33 0.2,-0.61 0.45,-0.61l24.17 0c0.25,0 0.46,0.28 0.46,0.61 0,0.34 -0.21,0.61 -0.46,0.61l-24.17 0z"/>
   <path class="fil13" d="M150.63 26.73c-0.25,0 -0.45,-0.27 -0.45,-0.61 0,-0.33 0.2,-0.6 0.45,-0.6l28.22 0c0.25,0 0.45,0.27 0.45,0.6 0,0.34 -0.2,0.61 -0.45,0.61l-28.22 0z"/>
   <path class="fil13" d="M150.63 30.78c-0.25,0 -0.45,-0.28 -0.45,-0.61 0,-0.34 0.2,-0.61 0.45,-0.61l14.88 0c0.25,0 0.45,0.27 0.45,0.61 0,0.33 -0.2,0.61 -0.45,0.61l-14.88 0z"/>
   <path class="fil13" d="M150.63 34.7c-0.25,0 -0.45,-0.28 -0.45,-0.61 0,-0.34 0.2,-0.61 0.45,-0.61l9.84 0c0.26,0 0.46,0.27 0.46,0.61 0,0.33 -0.2,0.61 -0.46,0.61l-9.84 0z"/>
   <path class="fil13" d="M162.77 34.7c-0.25,0 -0.45,-0.28 -0.45,-0.61 0,-0.34 0.2,-0.61 0.45,-0.61l5.47 0c0.25,0 0.45,0.27 0.45,0.61 0,0.33 -0.2,0.61 -0.45,0.61l-5.47 0z"/>
   <path class="fil13" d="M170.36 34.7c-0.25,0 -0.46,-0.28 -0.46,-0.61 0,-0.34 0.21,-0.61 0.46,-0.61l6.26 0c0.25,0 0.46,0.27 0.46,0.61 0,0.33 -0.21,0.61 -0.46,0.61l-6.26 0z"/>
   <path class="fil13" d="M167.43 30.78c-0.25,0 -0.45,-0.28 -0.45,-0.61 0,-0.34 0.2,-0.61 0.45,-0.61l5.51 0c0.25,0 0.46,0.27 0.46,0.61 0,0.33 -0.21,0.61 -0.46,0.61l-5.51 0z"/>
   <path class="fil13" d="M150.63 38.94c-0.25,0 -0.45,-0.27 -0.45,-0.61 0,-0.33 0.2,-0.6 0.45,-0.6l24.17 0c0.25,0 0.46,0.27 0.46,0.6 0,0.34 -0.21,0.61 -0.46,0.61l-24.17 0z"/>
   <path class="fil13" d="M150.63 42.99c-0.25,0 -0.45,-0.28 -0.45,-0.61 0,-0.34 0.2,-0.61 0.45,-0.61l28.22 0c0.25,0 0.45,0.27 0.45,0.61 0,0.33 -0.2,0.61 -0.45,0.61l-28.22 0z"/>
   <path class="fil13" d="M150.63 47.03c-0.25,0 -0.45,-0.27 -0.45,-0.61 0,-0.34 0.2,-0.61 0.45,-0.61l14.88 0c0.25,0 0.45,0.27 0.45,0.61 0,0.34 -0.2,0.61 -0.45,0.61l-14.88 0z"/>
   <path class="fil13" d="M150.63 50.95c-0.25,0 -0.45,-0.27 -0.45,-0.61 0,-0.34 0.2,-0.61 0.45,-0.61l9.84 0c0.26,0 0.46,0.27 0.46,0.61 0,0.34 -0.2,0.61 -0.46,0.61l-9.84 0z"/>
   <path class="fil13" d="M162.77 50.95c-0.25,0 -0.45,-0.27 -0.45,-0.61 0,-0.34 0.2,-0.61 0.45,-0.61l5.47 0c0.25,0 0.45,0.27 0.45,0.61 0,0.34 -0.2,0.61 -0.45,0.61l-5.47 0z"/>
   <path class="fil13" d="M170.36 50.95c-0.25,0 -0.46,-0.27 -0.46,-0.61 0,-0.34 0.21,-0.61 0.46,-0.61l6.26 0c0.25,0 0.46,0.27 0.46,0.61 0,0.34 -0.21,0.61 -0.46,0.61l-6.26 0z"/>
   <path class="fil13" d="M167.43 47.03c-0.25,0 -0.45,-0.27 -0.45,-0.61 0,-0.34 0.2,-0.61 0.45,-0.61l5.51 0c0.25,0 0.46,0.27 0.46,0.61 0,0.34 -0.21,0.61 -0.46,0.61l-5.51 0z"/>
   <path class="fil13" d="M100.44 32.85c-0.25,0 -0.45,-0.27 -0.45,-0.61 0,-0.34 0.2,-0.61 0.45,-0.61l24.17 0c0.25,0 0.45,0.27 0.45,0.61 0,0.34 -0.2,0.61 -0.45,0.61l-24.17 0z"/>
   <path class="fil13" d="M100.44 36.89c-0.25,0 -0.45,-0.27 -0.45,-0.61 0,-0.33 0.2,-0.61 0.45,-0.61l28.22 0c0.25,0 0.45,0.28 0.45,0.61 0,0.34 -0.2,0.61 -0.45,0.61l-28.22 0z"/>
   <path class="fil13" d="M100.44 40.93c-0.25,0 -0.45,-0.27 -0.45,-0.6 0,-0.34 0.2,-0.61 0.45,-0.61l14.87 0c0.25,0 0.46,0.27 0.46,0.61 0,0.33 -0.21,0.6 -0.46,0.6l-14.87 0z"/>
   <path class="fil13" d="M100.44 44.85c-0.25,0 -0.45,-0.27 -0.45,-0.6 0,-0.34 0.2,-0.61 0.45,-0.61l9.84 0c0.25,0 0.46,0.27 0.46,0.61 0,0.33 -0.21,0.6 -0.46,0.6l-9.84 0z"/>
   <path class="fil13" d="M112.58 44.85c-0.25,0 -0.45,-0.27 -0.45,-0.6 0,-0.34 0.2,-0.61 0.45,-0.61l5.47 0c0.25,0 0.45,0.27 0.45,0.61 0,0.33 -0.2,0.6 -0.45,0.6l-5.47 0z"/>
   <path class="fil13" d="M120.16 44.85c-0.25,0 -0.45,-0.27 -0.45,-0.6 0,-0.34 0.2,-0.61 0.45,-0.61l6.27 0c0.25,0 0.45,0.27 0.45,0.61 0,0.33 -0.2,0.6 -0.45,0.6l-6.27 0z"/>
   <path class="fil13" d="M117.24 40.93c-0.25,0 -0.45,-0.27 -0.45,-0.6 0,-0.34 0.2,-0.61 0.45,-0.61l5.51 0c0.25,0 0.45,0.27 0.45,0.61 0,0.33 -0.2,0.6 -0.45,0.6l-5.51 0z"/>
   <path class="fil13" d="M100.44 49.1c-0.25,0 -0.45,-0.27 -0.45,-0.61 0,-0.33 0.2,-0.61 0.45,-0.61l24.17 0c0.25,0 0.45,0.28 0.45,0.61 0,0.34 -0.2,0.61 -0.45,0.61l-24.17 0z"/>
   <path class="fil13" d="M100.44 53.14c-0.25,0 -0.45,-0.27 -0.45,-0.6 0,-0.34 0.2,-0.61 0.45,-0.61l28.22 0c0.25,0 0.45,0.27 0.45,0.61 0,0.33 -0.2,0.6 -0.45,0.6l-28.22 0z"/>
   <path class="fil13" d="M100.44 57.19c-0.25,0 -0.45,-0.28 -0.45,-0.61 0,-0.34 0.2,-0.61 0.45,-0.61l14.87 0c0.25,0 0.46,0.27 0.46,0.61 0,0.33 -0.21,0.61 -0.46,0.61l-14.87 0z"/>
   <path class="fil13" d="M100.44 61.11c-0.25,0 -0.45,-0.28 -0.45,-0.61 0,-0.34 0.2,-0.61 0.45,-0.61l9.84 0c0.25,0 0.46,0.27 0.46,0.61 0,0.33 -0.21,0.61 -0.46,0.61l-9.84 0z"/>
   <path class="fil13" d="M112.58 61.11c-0.25,0 -0.45,-0.28 -0.45,-0.61 0,-0.34 0.2,-0.61 0.45,-0.61l5.47 0c0.25,0 0.45,0.27 0.45,0.61 0,0.33 -0.2,0.61 -0.45,0.61l-5.47 0z"/>
   <path class="fil13" d="M120.16 61.11c-0.25,0 -0.45,-0.28 -0.45,-0.61 0,-0.34 0.2,-0.61 0.45,-0.61l6.27 0c0.25,0 0.45,0.27 0.45,0.61 0,0.33 -0.2,0.61 -0.45,0.61l-6.27 0z"/>
   <path class="fil13" d="M117.24 57.19c-0.25,0 -0.45,-0.28 -0.45,-0.61 0,-0.34 0.2,-0.61 0.45,-0.61l5.51 0c0.25,0 0.45,0.27 0.45,0.61 0,0.33 -0.2,0.61 -0.45,0.61l-5.51 0z"/>
   <polygon class="fil13" points="151.95,18.29 151.95,15.22 151.41,15.22 151.41,14.7 153.1,14.7 153.1,15.22 152.59,15.22 152.59,18.29 153.85,18.29 153.85,16.89 154.43,16.89 154.43,18.8 151.41,18.8 151.41,18.29 "/>
   <path id="1" class="fil13" d="M157.36 17.36l-1.5 0 -0.31 0.93 0.51 0 0 0.51 -1.63 0 0 -0.51 0.5 0 1.12 -3.12 -0.5 0 0 -0.47 2.12 0 0 0.47 -0.53 0 1.16 3.12 0.46 0 0 0.51 -1.61 0 0 -0.51 0.51 0 -0.3 -0.93zm-0.16 -0.48l-0.55 -1.71 -0.06 0 -0.57 1.71 1.18 0z"/>
   <path id="2" class="fil13" d="M159.77 15.22l0 2.05c0,0.32 0.02,0.54 0.05,0.66 0.03,0.12 0.11,0.22 0.24,0.31 0.13,0.09 0.3,0.13 0.5,0.13 0.25,0 0.43,-0.04 0.56,-0.11 0.13,-0.08 0.22,-0.18 0.26,-0.3 0.04,-0.13 0.07,-0.35 0.07,-0.66l0 -2.08 -0.48 0 0 -0.52 1.61 0 0 0.52 -0.52 0 0 2.14c0,0.29 -0.01,0.5 -0.03,0.63 -0.03,0.13 -0.09,0.27 -0.2,0.41 -0.11,0.14 -0.26,0.26 -0.46,0.34 -0.2,0.09 -0.44,0.13 -0.72,0.13 -0.31,0 -0.57,-0.04 -0.78,-0.12 -0.2,-0.08 -0.36,-0.19 -0.46,-0.32 -0.11,-0.13 -0.18,-0.28 -0.21,-0.43 -0.04,-0.15 -0.05,-0.38 -0.05,-0.7l0 -2.08 -0.51 0 0 -0.52 1.62 0 0 0.52 -0.49 0z"/>
   <path id="3" class="fil13" d="M163.29 18.29l0 -3.07 -0.56 0 0 -0.52 1.59 0c0.44,0 0.78,0.03 1.02,0.07 0.24,0.05 0.46,0.15 0.69,0.31 0.22,0.16 0.4,0.38 0.53,0.65 0.13,0.28 0.2,0.6 0.2,0.95 0,0.41 -0.06,0.76 -0.19,1.06 -0.13,0.3 -0.3,0.52 -0.51,0.67 -0.2,0.14 -0.45,0.25 -0.74,0.31 -0.28,0.05 -0.65,0.08 -1.09,0.08l-1.5 0 0 -0.51 0.56 0zm0.62 0l0.33 0c0.36,0 0.65,-0.02 0.86,-0.07 0.21,-0.04 0.39,-0.12 0.53,-0.23 0.15,-0.11 0.27,-0.27 0.36,-0.49 0.09,-0.22 0.13,-0.48 0.13,-0.78 0,-0.36 -0.07,-0.66 -0.22,-0.91 -0.15,-0.24 -0.34,-0.4 -0.57,-0.48 -0.23,-0.07 -0.58,-0.11 -1.06,-0.11l-0.36 0 0 3.07z"/>
   <path id="4" class="fil13" d="M167.37 16.73c0,-0.59 0.2,-1.09 0.59,-1.49 0.39,-0.4 0.9,-0.6 1.52,-0.6 0.63,0 1.15,0.2 1.55,0.6 0.4,0.4 0.6,0.9 0.6,1.51 0,0.61 -0.21,1.12 -0.61,1.52 -0.41,0.4 -0.92,0.6 -1.55,0.6 -0.4,0 -0.76,-0.1 -1.1,-0.29 -0.33,-0.19 -0.58,-0.45 -0.75,-0.79 -0.17,-0.34 -0.25,-0.69 -0.25,-1.06zm0.68 0c0,0.46 0.13,0.83 0.4,1.14 0.26,0.3 0.61,0.46 1.04,0.46 0.42,0 0.77,-0.16 1.05,-0.47 0.27,-0.31 0.41,-0.69 0.41,-1.12 0,-0.44 -0.14,-0.8 -0.42,-1.11 -0.28,-0.3 -0.63,-0.45 -1.05,-0.45 -0.42,0 -0.77,0.15 -1.03,0.45 -0.27,0.29 -0.4,0.66 -0.4,1.1z"/>
   <polygon class="fil13" points="100.85,27.85 100.85,24.78 100.31,24.78 100.31,24.27 102,24.27 102,24.78 101.49,24.78 101.49,27.85 102.75,27.85 102.75,26.46 103.33,26.46 103.33,28.37 100.31,28.37 100.31,27.85 "/>
   <path id="1" class="fil13" d="M106.26 26.92l-1.5 0 -0.31 0.93 0.51 0 0 0.52 -1.63 0 0 -0.52 0.5 0 1.12 -3.12 -0.5 0 0 -0.46 2.12 0 0 0.46 -0.53 0 1.16 3.12 0.46 0 0 0.52 -1.61 0 0 -0.52 0.51 0 -0.3 -0.93zm-0.16 -0.48l-0.55 -1.71 -0.06 0 -0.57 1.71 1.18 0z"/>
   <path id="2" class="fil13" d="M108.67 24.78l0 2.05c0,0.32 0.01,0.54 0.05,0.66 0.03,0.13 0.11,0.23 0.24,0.31 0.13,0.09 0.3,0.13 0.5,0.13 0.25,0 0.43,-0.03 0.56,-0.11 0.13,-0.07 0.22,-0.17 0.26,-0.3 0.04,-0.12 0.07,-0.34 0.07,-0.66l0 -2.08 -0.48 0 0 -0.51 1.61 0 0 0.51 -0.52 0 0 2.14c0,0.29 -0.01,0.5 -0.03,0.63 -0.03,0.13 -0.1,0.27 -0.2,0.41 -0.11,0.15 -0.26,0.26 -0.46,0.35 -0.2,0.08 -0.44,0.12 -0.72,0.12 -0.31,0 -0.57,-0.04 -0.78,-0.12 -0.2,-0.08 -0.36,-0.18 -0.46,-0.32 -0.11,-0.13 -0.18,-0.27 -0.21,-0.42 -0.04,-0.15 -0.05,-0.39 -0.05,-0.71l0 -2.08 -0.51 0 0 -0.51 1.62 0 0 0.51 -0.49 0z"/>
   <path id="3" class="fil13" d="M112.19 27.85l0 -3.07 -0.56 0 0 -0.51 1.59 0c0.44,0 0.78,0.02 1.02,0.07 0.23,0.04 0.46,0.14 0.69,0.3 0.22,0.16 0.4,0.38 0.53,0.66 0.13,0.28 0.2,0.59 0.2,0.95 0,0.4 -0.06,0.75 -0.19,1.05 -0.13,0.3 -0.3,0.52 -0.51,0.67 -0.2,0.15 -0.45,0.25 -0.74,0.31 -0.28,0.06 -0.65,0.09 -1.09,0.09l-1.5 0 0 -0.52 0.56 0zm0.62 0l0.33 0c0.36,0 0.65,-0.02 0.86,-0.06 0.21,-0.05 0.39,-0.13 0.53,-0.23 0.15,-0.11 0.27,-0.28 0.36,-0.5 0.09,-0.22 0.13,-0.48 0.13,-0.78 0,-0.35 -0.07,-0.65 -0.22,-0.9 -0.15,-0.25 -0.34,-0.41 -0.57,-0.48 -0.23,-0.08 -0.58,-0.12 -1.06,-0.12l-0.36 0 0 3.07z"/>
   <path id="4" class="fil13" d="M116.27 26.3c0,-0.6 0.19,-1.09 0.59,-1.5 0.39,-0.4 0.89,-0.6 1.52,-0.6 0.63,0 1.15,0.2 1.55,0.6 0.4,0.41 0.6,0.91 0.6,1.51 0,0.62 -0.21,1.12 -0.61,1.52 -0.41,0.4 -0.92,0.6 -1.55,0.6 -0.4,0 -0.76,-0.09 -1.1,-0.28 -0.33,-0.19 -0.58,-0.46 -0.75,-0.79 -0.17,-0.34 -0.25,-0.7 -0.25,-1.06zm0.68 0c0,0.45 0.13,0.83 0.39,1.13 0.27,0.31 0.62,0.46 1.05,0.46 0.42,0 0.77,-0.16 1.05,-0.47 0.27,-0.31 0.41,-0.68 0.41,-1.11 0,-0.44 -0.14,-0.81 -0.42,-1.11 -0.28,-0.3 -0.63,-0.45 -1.05,-0.45 -0.42,0 -0.77,0.14 -1.03,0.44 -0.27,0.3 -0.4,0.67 -0.4,1.11z"/>
  </g>
 </g>
</svg>
