<?xml version="1.0" encoding="UTF-8"?>
<!DOCTYPE svg PUBLIC "-//W3C//DTD SVG 1.1//EN" "http://www.w3.org/Graphics/SVG/1.1/DTD/svg11.dtd">
<!-- Creator: CorelDRAW 2019 (64 Bit) -->
<svg xmlns="http://www.w3.org/2000/svg" xml:space="preserve" width="1307px" height="924px" version="1.1" style="shape-rendering:geometricPrecision; text-rendering:geometricPrecision; image-rendering:optimizeQuality; fill-rule:evenodd; clip-rule:evenodd"
viewBox="0 0 147.42 104.21"
 xmlns:xlink="http://www.w3.org/1999/xlink">
 <defs>
  <style type="text/css">
   <![CDATA[
    .fil14 {fill:#9999FF}
    .fil5 {fill:#2E5B9A;fill-rule:nonzero}
    .fil1 {fill:#303C60;fill-rule:nonzero}
    .fil13 {fill:#74B570;fill-rule:nonzero}
    .fil8 {fill:#7BCEE8;fill-rule:nonzero}
    .fil3 {fill:#99CC66;fill-rule:nonzero}
    .fil7 {fill:#9BD6E8;fill-rule:nonzero}
    .fil12 {fill:#9CD499;fill-rule:nonzero}
    .fil15 {fill:#CCCCFF;fill-rule:nonzero}
    .fil4 {fill:#CCFF66;fill-rule:nonzero}
    .fil9 {fill:#D54A41;fill-rule:nonzero}
    .fil2 {fill:#E38540;fill-rule:nonzero}
    .fil0 {fill:#E7F3FE;fill-rule:nonzero}
    .fil6 {fill:#F09959;fill-rule:nonzero}
    .fil11 {fill:#F2E5DE;fill-rule:nonzero}
    .fil10 {fill:#F39892;fill-rule:nonzero}
   ]]>
  </style>
 </defs>
 <g id="Camada_x0020_1">
  <metadata id="CorelCorpID_0Corel-Layer"/>
  <g id="_1906202274128">
   <path class="fil0" d="M92.76 102.51c41.73,0.15 68.64,-43.05 46.99,-72.18 -16.79,-22.59 -34.5,0.39 -55.38,-16.17 -32.13,-25.49 -72.99,-14.69 -79.88,17.44 -6.89,32.12 4.74,66.89 21.75,69.91 17.01,3.01 66.52,1 66.52,1z"/>
   <path class="fil1" d="M91.52 41.84c-0.45,10.76 -0.34,16.59 3.59,21.07 3.92,4.48 14.92,3.36 14.92,3.36 0,0 1.08,15.84 16.45,16.51 15.37,0.67 17.58,-19.72 5.54,-24.95 -11.47,-4.98 -15.11,-6.43 -19.08,-18.75 -3.62,-11.27 -14.92,-9.12 -17.61,-4.41 -2.69,4.7 -3.81,7.17 -3.81,7.17z"/>
   <path class="fil2" d="M96.57 96.75c0,0 -7.26,1.42 -7.63,1.35 -0.38,-0.08 -8.31,-3.59 -9.13,-3.07 -0.82,0.53 -5.61,2.54 -6.65,2.99 -1.05,0.45 0.59,0.6 1.42,0.6 0.82,0 5.53,-1.94 6.05,-1.57 0.53,0.38 -4.11,1.12 -4.11,1.42 0,0.3 12.42,3.14 13.16,3.14 0.75,0 6.51,-0.52 6.51,-0.52l0.38 -4.34z"/>
   <path class="fil3" d="M102.59 57.17c-3.91,0.77 -6.21,4.9 -6.96,8.52 -0.75,3.62 6.96,-8.52 6.96,-8.52z"/>
   <path class="fil4" d="M109.13 54.39c0,0 7.52,5.04 11.56,7.51 3.66,2.24 -0.53,24.35 -2.34,35.78 -6.68,2.72 -13.88,4.47 -21.34,4.9l0 0c0,0 -0.4,0.01 -1.13,0.04 -1.64,-0.54 -2.68,-0.94 -2.68,-0.94 0,0 1.57,-8.29 -0.45,-21.62 -1.45,-9.56 3.85,-15.55 6.88,-19.69 7.65,-10.47 9.5,-5.98 9.5,-5.98z"/>
   <path class="fil3" d="M116.53 62.01c-8.63,10.54 -11.55,12.51 -9.42,19.61 1.68,5.61 2.24,7.62 2.58,9.53 0.34,1.9 -16.04,-1.23 -16.04,-1.23l0.11 6.16c0,0 6.41,3.06 12.39,5.3 5.54,-1.13 10.86,-2.95 15.85,-5.31l-5.47 -34.06z"/>
   <path class="fil5" d="M8.36 104.21l132.66 0c0.74,0 1.34,-0.6 1.34,-1.34 0,-0.74 -0.6,-1.33 -1.34,-1.33l-132.66 0c-0.74,0 -1.23,0.59 -1.23,1.33 0,0.74 0.49,1.34 1.23,1.34z"/>
   <path class="fil6" d="M106.36 43.78l3.89 11.51c0,0 -4.26,11.54 -7.85,8.96 -1.23,-0.88 0.45,-7.84 0.45,-7.84l-2.62 -9.34 6.13 -3.29z"/>
   <path class="fil6" d="M118.78 61.56c5.37,0.6 5.83,7.85 8.3,19.95 2.47,12.11 1.73,20.09 0.56,21.63 -2.8,3.7 -34.33,-9.19 -38.25,-9.08 -2.71,0.08 -0.45,-4.48 -0.45,-4.48l30.06 4.6c0,0 -4.26,-14.01 -4.26,-21.19 0,-7.17 2.02,-11.65 4.04,-11.43z"/>
   <path class="fil6" d="M90.84 89.8c-3.14,-0.78 -7.74,-2.57 -8.63,-1.79 -0.9,0.79 -4.6,6.39 -5.84,7.96 -1.23,1.57 0.56,0.33 1.91,-0.9 1.34,-1.23 2.47,-1.9 2.47,-1.9 0,0 1.68,1.57 3.25,2.46 1.57,0.9 2.13,-0.89 4.82,-1.34 2.7,-0.45 9.43,1.9 9.43,1.9l-7.41 -6.39z"/>
   <path class="fil4" d="M118.18 60.67c3.29,0.15 5.83,2.91 6.73,7.17 0.9,4.26 3.52,17.78 3.52,17.78 0,0 0.52,0.37 -4.94,1.35 -5.46,0.97 -9.95,-0.15 -9.95,-0.15 0,0 -1.12,-7.7 -0.82,-13 0.3,-5.31 1.5,-10.31 3.44,-12.03 1.95,-1.72 2.02,-1.12 2.02,-1.12z"/>
   <path class="fil2" d="M102.85 56.41l-2.62 -9.34 6.13 -3.29 0.94 2.77c0.2,9.28 -2.18,12.39 -3.78,13.52 -0.5,0.35 -0.93,0.08 -1.29,-0.5 0.26,-1.68 0.62,-3.16 0.62,-3.16z"/>
   <path class="fil6" d="M90.4 44.87c0,4.99 0.59,11.12 4.93,10.98 6.73,-0.23 10.97,-5.45 10.97,-10.45 0,-5 -3.52,-9.05 -7.86,-9.05 -4.34,0 -8.04,3.52 -8.04,8.52z"/>
   <path class="fil7" d="M40.16 101.53l25.23 0 -10.37 -22.81c-0.31,-0.66 -0.97,-1.09 -1.7,-1.09l-22.9 0c-0.53,0 -0.89,0.55 -0.67,1.03l10.41 22.87z"/>
   <path class="fil7" d="M40.22 101.53l46.55 0c0,-1.62 -1.32,-2.93 -2.94,-2.93l-43.61 0 0 2.93z"/>
   <path class="fil8" d="M30.42 77.63l20.18 0c0.73,0 1.39,0.43 1.7,1.09l10.38 22.81 -22.52 0 -10.41 -22.87c-0.22,-0.48 0.14,-1.03 0.67,-1.03z"/>
   <path class="fil1" d="M97.8 34.61c-4.77,-0.33 -7.59,4.02 -8.41,7.83 -0.6,2.75 -0.3,3.29 -0.3,3.29 0,0 0.52,0.74 4.26,0.97 3.74,0.22 4.19,0.15 4.19,0.15l0.22 -4.34 1.12 4.19c0,0 0.6,0.82 2.92,-0.3 2.32,-1.12 3.37,-4.86 3.37,-4.86 0,0 0.52,-2.46 -1.28,-4.11 -1.79,-1.64 -6.09,-2.82 -6.09,-2.82z"/>
   <path class="fil9" d="M101.35 45.85c0.45,3.03 2.87,5.17 5.39,4.79 2.53,-0.38 4.2,-3.14 3.74,-6.16 -0.46,-3.03 -2.87,-5.17 -5.39,-4.79 -2.53,0.38 -4.2,3.14 -3.74,6.16z"/>
   <path class="fil10" d="M103.17 45.77c0.42,2.8 2.41,4.82 4.43,4.52 2.02,-0.31 3.32,-2.82 2.9,-5.62 -0.43,-2.8 -2.41,-4.82 -4.43,-4.52 -2.03,0.31 -3.32,2.82 -2.9,5.62z"/>
   <path class="fil11" d="M106.26 45.15c0.23,1.54 1.07,2.68 1.87,2.56 0.81,-0.12 1.27,-1.46 1.04,-3 -0.24,-1.54 -1.08,-2.69 -1.88,-2.57 -0.8,0.12 -1.26,1.47 -1.03,3.01z"/>
   <path class="fil9" d="M106.38 39.77c-2.19,-8.13 -9.74,-6.94 -11.65,-5.81 -1.61,0.95 -1.83,2.3 -1.83,2.3 0,0 2.08,-1.69 5.61,-1.07 3.35,0.59 5.35,2.56 5.63,4.75 0.14,1.11 2.24,-0.17 2.24,-0.17z"/>
   <path class="fil1" d="M139.94 66l0.02 -0.01c0.1,0 0.17,-0.09 0.16,-0.18 -0.2,-2.06 -1.23,-4.17 -2.9,-5.95 -1.89,-2.01 -4.57,-3.6 -7.77,-4.59 -7.12,-2.2 -13.33,-5 -17.24,-16.99 -0.03,-0.1 -0.13,-0.14 -0.22,-0.12 -0.09,0.03 -0.14,0.13 -0.11,0.22 1.8,5.52 4.24,9.53 7.47,12.28 2.85,2.42 6.06,3.72 10,4.94 3.14,0.97 5.77,2.53 7.62,4.5 1.62,1.72 2.61,3.76 2.8,5.74 0.01,0.09 0.09,0.16 0.17,0.16z"/>
   <path class="fil1" d="M136.73 57.7c0.05,0 0.1,-0.02 0.13,-0.06 0.06,-0.08 0.05,-0.19 -0.03,-0.25 -0.03,-0.02 -3.07,-2.35 -7.47,-3.32 -8.45,-1.86 -14.12,-6.93 -16.4,-14.67 -0.03,-0.09 -0.12,-0.14 -0.21,-0.12 -0.1,0.03 -0.15,0.13 -0.12,0.22 1.41,4.78 4.06,8.55 7.88,11.21 2.46,1.72 5.41,2.96 8.78,3.7 4.32,0.95 7.3,3.23 7.33,3.26 0.03,0.02 0.07,0.03 0.11,0.03z"/>
   <path class="fil12" d="M27.76 94.69c0,-0.47 -5.63,-16 -1.82,-26 2.66,-7.01 3.08,-15.41 3.08,-15.41 0,0 5.19,7.42 1.69,18.77 -2.16,6.98 -3.04,8.91 -3.23,10.97 -0.19,2.05 0.84,12.32 0.84,12.32l-0.56 -0.65z"/>
   <path class="fil13" d="M29.16 53.83c0.43,0.73 1.25,2.34 1.85,4.64 0.78,2.96 1.33,7.71 -0.47,13.53 -0.73,2.36 -1.31,4.12 -1.77,5.54 -0.92,2.81 -1.34,4.08 -1.46,5.46 -0.16,1.8 0.57,9.64 0.79,11.82l-0.18 -0.2c-0.02,-0.11 -0.08,-0.31 -0.23,-0.83 -3.25,-10.85 -3.78,-19.27 -1.59,-25.04 2.26,-5.93 2.91,-12.95 3.06,-14.92zm-0.84 41.69c0.02,0 0.05,-0.01 0.07,-0.02 0.07,-0.03 0.11,-0.1 0.1,-0.17 -0.01,-0.11 -1.02,-10.28 -0.84,-12.3 0.13,-1.34 0.54,-2.6 1.45,-5.38 0.46,-1.42 1.04,-3.19 1.77,-5.55 1.82,-5.9 1.26,-10.72 0.48,-13.73 -0.86,-3.27 -2.13,-5.11 -2.19,-5.19 -0.04,-0.06 -0.11,-0.09 -0.18,-0.07 -0.08,0.02 -0.13,0.09 -0.13,0.16 0,0.09 -0.45,8.46 -3.07,15.36 -1.43,3.74 -1.71,8.67 -0.85,14.65 0.68,4.78 1.91,8.87 2.43,10.61 0.12,0.4 0.22,0.74 0.23,0.81 0,0.04 0.01,0.07 0.04,0.1l0.56 0.66c0.03,0.04 0.08,0.06 0.13,0.06z"/>
   <path class="fil12" d="M26.55 96.28c0.84,-17.28 -3.28,-26.71 -11.69,-34.18 -8.41,-7.47 -8.78,-9.43 -8.78,-9.43 0,0 1.3,14.57 6.16,19.61 4.87,5.04 11.97,8.78 13,11.39 1.03,2.62 0.65,11.39 0.65,11.39l0.66 1.59 0 -0.37z"/>
   <path class="fil12" d="M27.57 97.77c0.1,-0.28 -1.77,-16.15 -8.6,-17.09 -6.82,-0.93 -8.41,0.66 -13.08,-0.09 -3.34,-0.53 -5.89,-1.59 -5.89,-1.59 0,0 1.77,4.5 7.85,6.35 4.3,1.31 9.91,-0.84 13.18,-0.28 3.27,0.56 4.95,7.57 4.95,7.57l0.57 3.64 1.02 1.49z"/>
   <path class="fil13" d="M26.64 95.42c0.09,0 0.16,-0.06 0.17,-0.15 0.01,-0.12 0.98,-11.27 -3.76,-19.8 -2.45,-4.41 -5.12,-6.97 -7.7,-9.44 -2.41,-2.3 -4.69,-4.48 -6.41,-7.93 -0.04,-0.08 -0.15,-0.11 -0.23,-0.07 -0.09,0.04 -0.12,0.14 -0.08,0.23 1.75,3.5 4.05,5.69 6.48,8.02 2.56,2.45 5.22,4.99 7.64,9.35 4.69,8.45 3.73,19.49 3.72,19.6 -0.01,0.1 0.06,0.18 0.15,0.19l0.02 0z"/>
   <path class="fil13" d="M27.11 93.18c0.01,0 0.03,0 0.05,0 0.09,-0.03 0.14,-0.13 0.11,-0.22 -1.79,-6.16 -3.84,-9.75 -6.46,-11.31 -2.34,-1.39 -4.76,-0.96 -7.32,-0.51 -0.63,0.11 -1.28,0.22 -1.92,0.31 -5.57,0.73 -8.29,-0.63 -8.31,-0.64 -0.09,-0.04 -0.19,-0.01 -0.24,0.08 -0.04,0.08 -0.01,0.18 0.08,0.23 0.11,0.06 2.82,1.42 8.51,0.67 0.65,-0.09 1.3,-0.2 1.94,-0.31 2.49,-0.44 4.85,-0.86 7.08,0.47 2.54,1.51 4.55,5.04 6.31,11.11 0.02,0.07 0.09,0.12 0.17,0.12z"/>
   <path class="fil13" d="M18.18 69.23c0.05,0 0.1,-0.02 0.14,-0.06 0.06,-0.08 0.04,-0.19 -0.03,-0.25 -0.04,-0.02 -3.36,-2.55 -7.98,-3.44 -0.09,-0.02 -0.18,0.05 -0.2,0.14 -0.02,0.09 0.04,0.18 0.14,0.2 4.53,0.87 7.79,3.35 7.82,3.38 0.04,0.02 0.07,0.03 0.11,0.03z"/>
   <path class="fil13" d="M23.46 76.75c0.03,0 0.06,-0.01 0.09,-0.03 0.08,-0.04 0.11,-0.15 0.06,-0.23 -2.43,-4.1 -5.29,-5.14 -11.5,-7.08 -0.09,-0.03 -0.19,0.02 -0.22,0.11 -0.03,0.09 0.02,0.19 0.12,0.22 6.12,1.92 8.93,2.93 11.3,6.92 0.03,0.06 0.09,0.09 0.15,0.09z"/>
   <path class="fil10" d="M24.97 102.02l4.18 0c1.47,0 2.74,-1.05 3.01,-2.49l1.35 -7.03 -12.9 0 1.35 7.03c0.27,1.44 1.54,2.49 3.01,2.49z"/>
   <path class="fil9" d="M20.94 94.29l12.15 0c0.19,0 0.34,-0.16 0.34,-0.35 0,-0.19 -0.15,-0.34 -0.34,-0.34l-12.15 0c-0.19,0 -0.35,0.15 -0.35,0.34 0,0.19 0.16,0.35 0.35,0.35z"/>
   <path class="fil14" d="M72.9 29.54l-37.15 0c-0.54,0 -0.98,0.44 -0.98,0.98l0 28.23c0,0.54 0.44,0.98 0.98,0.98l23 0 -1.2 15.94 5.19 -15.94 10.16 0c0.54,0 0.98,-0.44 0.98,-0.98l0 -28.23c0,-0.54 -0.44,-0.98 -0.98,-0.98z"/>
   <path class="fil15" d="M40.47 35.09c-0.25,0 -0.45,-0.2 -0.45,-0.45 0,-0.25 0.2,-0.46 0.45,-0.46l24.24 0c0.25,0 0.45,0.21 0.45,0.46 0,0.25 -0.2,0.45 -0.45,0.45l-24.24 0z"/>
   <path class="fil15" d="M40.47 38.12c-0.25,0 -0.45,-0.21 -0.45,-0.46 0,-0.25 0.2,-0.45 0.45,-0.45l28.3 0c0.25,0 0.45,0.2 0.45,0.45 0,0.25 -0.2,0.46 -0.45,0.46l-28.3 0z"/>
   <path class="fil15" d="M40.47 41.14c-0.25,0 -0.45,-0.2 -0.45,-0.45 0,-0.25 0.2,-0.46 0.45,-0.46l14.92 0c0.25,0 0.45,0.21 0.45,0.46 0,0.25 -0.2,0.45 -0.45,0.45l-14.92 0z"/>
   <path class="fil15" d="M40.47 44.07c-0.25,0 -0.45,-0.2 -0.45,-0.45 0,-0.25 0.2,-0.46 0.45,-0.46l9.87 0c0.26,0 0.46,0.21 0.46,0.46 0,0.25 -0.2,0.45 -0.46,0.45l-9.87 0z"/>
   <path class="fil15" d="M52.65 44.07c-0.25,0 -0.46,-0.2 -0.46,-0.45 0,-0.25 0.21,-0.46 0.46,-0.46l5.48 0c0.25,0 0.45,0.21 0.45,0.46 0,0.25 -0.2,0.45 -0.45,0.45l-5.48 0z"/>
   <path class="fil15" d="M60.25 44.07c-0.25,0 -0.45,-0.2 -0.45,-0.45 0,-0.25 0.2,-0.46 0.45,-0.46l6.28 0c0.25,0 0.46,0.21 0.46,0.46 0,0.25 -0.21,0.45 -0.46,0.45l-6.28 0z"/>
   <path class="fil15" d="M57.32 41.14c-0.25,0 -0.45,-0.2 -0.45,-0.45 0,-0.25 0.2,-0.46 0.45,-0.46l5.52 0c0.26,0 0.46,0.21 0.46,0.46 0,0.25 -0.2,0.45 -0.46,0.45l-5.52 0z"/>
   <path class="fil15" d="M40.47 47.25c-0.25,0 -0.45,-0.2 -0.45,-0.45 0,-0.25 0.2,-0.46 0.45,-0.46l24.24 0c0.25,0 0.45,0.21 0.45,0.46 0,0.25 -0.2,0.45 -0.45,0.45l-24.24 0z"/>
   <path class="fil15" d="M40.47 50.28c-0.25,0 -0.45,-0.21 -0.45,-0.46 0,-0.25 0.2,-0.45 0.45,-0.45l28.3 0c0.25,0 0.45,0.2 0.45,0.45 0,0.25 -0.2,0.46 -0.45,0.46l-28.3 0z"/>
   <path class="fil15" d="M40.47 53.3c-0.25,0 -0.45,-0.2 -0.45,-0.45 0,-0.26 0.2,-0.46 0.45,-0.46l14.92 0c0.25,0 0.45,0.2 0.45,0.46 0,0.25 -0.2,0.45 -0.45,0.45l-14.92 0z"/>
   <path class="fil15" d="M40.47 56.23c-0.25,0 -0.45,-0.2 -0.45,-0.45 0,-0.25 0.2,-0.46 0.45,-0.46l9.87 0c0.26,0 0.46,0.21 0.46,0.46 0,0.25 -0.2,0.45 -0.46,0.45l-9.87 0z"/>
   <path class="fil15" d="M52.65 56.23c-0.25,0 -0.46,-0.2 -0.46,-0.45 0,-0.25 0.21,-0.46 0.46,-0.46l5.48 0c0.25,0 0.45,0.21 0.45,0.46 0,0.25 -0.2,0.45 -0.45,0.45l-5.48 0z"/>
   <path class="fil15" d="M60.25 56.23c-0.25,0 -0.45,-0.2 -0.45,-0.45 0,-0.25 0.2,-0.46 0.45,-0.46l6.28 0c0.25,0 0.46,0.21 0.46,0.46 0,0.25 -0.21,0.45 -0.46,0.45l-6.28 0z"/>
   <path class="fil15" d="M57.32 53.3c-0.25,0 -0.45,-0.2 -0.45,-0.45 0,-0.26 0.2,-0.46 0.45,-0.46l5.52 0c0.26,0 0.46,0.2 0.46,0.46 0,0.25 -0.2,0.45 -0.46,0.45l-5.52 0z"/>
   <g>
    <path class="fil3" d="M128.69 19.67c0,-0.13 -0.1,-0.23 -0.23,-0.23 -0.12,0 -0.22,0.1 -0.22,0.23l0 5.32c0,0.12 0.1,0.22 0.22,0.22 0.13,0 0.23,-0.1 0.23,-0.22l0 -5.32z"/>
    <path class="fil3" d="M130.24 18.09c0,-0.13 -0.1,-0.23 -0.22,-0.23 -0.13,0 -0.23,0.1 -0.23,0.23l0 8.48c0,0.12 0.1,0.23 0.23,0.23 0.12,0 0.22,-0.11 0.22,-0.23l0 -8.48z"/>
    <path class="fil3" d="M131.79 19.09c0,-0.12 -0.1,-0.22 -0.22,-0.22 -0.13,0 -0.23,0.1 -0.23,0.22l0 6.47c0,0.13 0.1,0.23 0.23,0.23 0.12,0 0.22,-0.1 0.22,-0.23l0 -6.47z"/>
    <path class="fil3" d="M133.35 20.24c0,-0.12 -0.1,-0.22 -0.23,-0.22 -0.12,0 -0.23,0.1 -0.23,0.22l0 4.17c0,0.13 0.11,0.23 0.23,0.23 0.13,0 0.23,-0.1 0.23,-0.23l0 -4.17z"/>
    <path class="fil3" d="M134.9 18.95c0,-0.12 -0.1,-0.23 -0.23,-0.23 -0.12,0 -0.22,0.11 -0.22,0.23l0 6.76c0,0.12 0.1,0.22 0.22,0.22 0.13,0 0.23,-0.1 0.23,-0.22l0 -6.76z"/>
    <path class="fil3" d="M136.45 20.03c0,-0.13 -0.1,-0.23 -0.22,-0.23 -0.13,0 -0.23,0.1 -0.23,0.23l0 4.6c0,0.12 0.1,0.22 0.23,0.22 0.12,0 0.22,-0.1 0.22,-0.22l0 -4.6z"/>
    <path class="fil3" d="M126.66 19.67c0,-0.13 0.1,-0.23 0.22,-0.23 0.13,0 0.23,0.1 0.23,0.23l0 5.32c0,0.12 -0.1,0.22 -0.23,0.22 -0.12,0 -0.22,-0.1 -0.22,-0.22l0 -5.32z"/>
    <path class="fil3" d="M125.1 18.09c0,-0.13 0.11,-0.23 0.23,-0.23 0.13,0 0.23,0.1 0.23,0.23l0 8.48c0,0.12 -0.1,0.23 -0.23,0.23 -0.12,0 -0.23,-0.11 -0.23,-0.23l0 -8.48z"/>
    <path class="fil3" d="M123.55 19.09c0,-0.12 0.1,-0.22 0.23,-0.22 0.12,0 0.22,0.1 0.22,0.22l0 6.47c0,0.13 -0.1,0.23 -0.22,0.23 -0.13,0 -0.23,-0.1 -0.23,-0.23l0 -6.47z"/>
    <path class="fil3" d="M122 20.24c0,-0.12 0.1,-0.22 0.23,-0.22 0.12,0 0.22,0.1 0.22,0.22l0 4.17c0,0.13 -0.1,0.23 -0.22,0.23 -0.13,0 -0.23,-0.1 -0.23,-0.23l0 -4.17z"/>
    <path class="fil3" d="M120.45 18.95c0,-0.12 0.1,-0.23 0.22,-0.23 0.13,0 0.23,0.11 0.23,0.23l0 6.76c0,0.12 -0.1,0.22 -0.23,0.22 -0.12,0 -0.22,-0.1 -0.22,-0.22l0 -6.76z"/>
    <path class="fil3" d="M118.89 20.03c0,-0.13 0.11,-0.23 0.23,-0.23 0.12,0 0.23,0.1 0.23,0.23l0 4.6c0,0.12 -0.11,0.22 -0.23,0.22 -0.12,0 -0.23,-0.1 -0.23,-0.22l0 -4.6z"/>
    <path class="fil3" d="M109.21 19.67c0,-0.13 -0.1,-0.23 -0.23,-0.23 -0.12,0 -0.22,0.1 -0.22,0.23l0 5.32c0,0.12 0.1,0.22 0.22,0.22 0.13,0 0.23,-0.1 0.23,-0.22l0 -5.32z"/>
    <path class="fil3" d="M110.76 18.09c0,-0.13 -0.1,-0.23 -0.23,-0.23 -0.12,0 -0.22,0.1 -0.22,0.23l0 8.48c0,0.12 0.1,0.23 0.22,0.23 0.13,0 0.23,-0.11 0.23,-0.23l0 -8.48z"/>
    <path class="fil3" d="M112.31 19.09c0,-0.12 -0.1,-0.22 -0.22,-0.22 -0.13,0 -0.23,0.1 -0.23,0.22l0 6.47c0,0.13 0.1,0.23 0.23,0.23 0.12,0 0.22,-0.1 0.22,-0.23l0 -6.47z"/>
    <path class="fil3" d="M113.86 20.24c0,-0.12 -0.1,-0.22 -0.22,-0.22 -0.13,0 -0.23,0.1 -0.23,0.22l0 4.17c0,0.13 0.1,0.23 0.23,0.23 0.12,0 0.22,-0.1 0.22,-0.23l0 -4.17z"/>
    <path class="fil3" d="M115.42 18.95c0,-0.12 -0.1,-0.23 -0.23,-0.23 -0.12,0 -0.22,0.11 -0.22,0.23l0 6.76c0,0.12 0.1,0.22 0.22,0.22 0.13,0 0.23,-0.1 0.23,-0.22l0 -6.76z"/>
    <path class="fil3" d="M116.97 20.03c0,-0.13 -0.1,-0.23 -0.23,-0.23 -0.12,0 -0.22,0.1 -0.22,0.23l0 4.6c0,0.12 0.1,0.22 0.22,0.22 0.13,0 0.23,-0.1 0.23,-0.22l0 -4.6z"/>
    <path class="fil3" d="M107.18 19.67c0,-0.13 0.1,-0.23 0.22,-0.23 0.13,0 0.23,0.1 0.23,0.23l0 5.32c0,0.12 -0.1,0.22 -0.23,0.22 -0.12,0 -0.22,-0.1 -0.22,-0.22l0 -5.32z"/>
    <path class="fil3" d="M105.62 18.09c0,-0.13 0.1,-0.23 0.23,-0.23 0.12,0 0.22,0.1 0.22,0.23l0 8.48c0,0.12 -0.1,0.23 -0.22,0.23 -0.13,0 -0.23,-0.11 -0.23,-0.23l0 -8.48z"/>
    <path class="fil3" d="M104.07 19.09c0,-0.12 0.1,-0.22 0.23,-0.22 0.12,0 0.22,0.1 0.22,0.22l0 6.47c0,0.13 -0.1,0.23 -0.22,0.23 -0.13,0 -0.23,-0.1 -0.23,-0.23l0 -6.47z"/>
    <path class="fil3" d="M102.52 20.24c0,-0.12 0.1,-0.22 0.22,-0.22 0.13,0 0.23,0.1 0.23,0.22l0 4.17c0,0.13 -0.1,0.23 -0.23,0.23 -0.12,0 -0.22,-0.1 -0.22,-0.23l0 -4.17z"/>
    <path class="fil3" d="M100.97 18.95c0,-0.12 0.1,-0.23 0.22,-0.23 0.13,0 0.23,0.11 0.23,0.23l0 6.76c0,0.12 -0.1,0.22 -0.23,0.22 -0.12,0 -0.22,-0.1 -0.22,-0.22l0 -6.76z"/>
    <path class="fil3" d="M99.41 20.03c0,-0.13 0.1,-0.23 0.23,-0.23 0.12,0 0.22,0.1 0.22,0.23l0 4.6c0,0.12 -0.1,0.22 -0.22,0.22 -0.13,0 -0.23,-0.1 -0.23,-0.22l0 -4.6z"/>
    <path class="fil3" d="M90.18 19.67c0,-0.13 -0.1,-0.23 -0.22,-0.23 -0.13,0 -0.23,0.1 -0.23,0.23l0 5.32c0,0.12 0.1,0.22 0.23,0.22 0.12,0 0.22,-0.1 0.22,-0.22l0 -5.32z"/>
    <path class="fil3" d="M91.73 18.09c0,-0.13 -0.1,-0.23 -0.22,-0.23 -0.13,0 -0.23,0.1 -0.23,0.23l0 8.48c0,0.12 0.1,0.23 0.23,0.23 0.12,0 0.22,-0.11 0.22,-0.23l0 -8.48z"/>
    <path class="fil3" d="M93.29 19.09c0,-0.12 -0.1,-0.22 -0.23,-0.22 -0.12,0 -0.22,0.1 -0.22,0.22l0 6.47c0,0.13 0.1,0.23 0.22,0.23 0.13,0 0.23,-0.1 0.23,-0.23l0 -6.47z"/>
    <path class="fil3" d="M94.84 20.24c0,-0.12 -0.1,-0.22 -0.23,-0.22 -0.12,0 -0.22,0.1 -0.22,0.22l0 4.17c0,0.13 0.1,0.23 0.22,0.23 0.13,0 0.23,-0.1 0.23,-0.23l0 -4.17z"/>
    <path class="fil3" d="M96.39 18.95c0,-0.12 -0.1,-0.23 -0.22,-0.23 -0.13,0 -0.23,0.11 -0.23,0.23l0 6.76c0,0.12 0.1,0.22 0.23,0.22 0.12,0 0.22,-0.1 0.22,-0.22l0 -6.76z"/>
    <path class="fil3" d="M97.94 20.03c0,-0.13 -0.1,-0.23 -0.22,-0.23 -0.13,0 -0.23,0.1 -0.23,0.23l0 4.6c0,0.12 0.1,0.22 0.23,0.22 0.12,0 0.22,-0.1 0.22,-0.22l0 -4.6z"/>
    <path class="fil3" d="M88.15 19.67c0,-0.13 0.1,-0.23 0.23,-0.23 0.12,0 0.22,0.1 0.22,0.23l0 5.32c0,0.12 -0.1,0.22 -0.22,0.22 -0.13,0 -0.23,-0.1 -0.23,-0.22l0 -5.32z"/>
    <path class="fil3" d="M86.6 18.09c0,-0.13 0.1,-0.23 0.22,-0.23 0.13,0 0.23,0.1 0.23,0.23l0 8.48c0,0.12 -0.1,0.23 -0.23,0.23 -0.12,0 -0.22,-0.11 -0.22,-0.23l0 -8.48z"/>
    <path class="fil3" d="M85.05 19.09c0,-0.12 0.1,-0.22 0.22,-0.22 0.13,0 0.23,0.1 0.23,0.22l0 6.47c0,0.13 -0.1,0.23 -0.23,0.23 -0.12,0 -0.22,-0.1 -0.22,-0.23l0 -6.47z"/>
    <path class="fil3" d="M83.49 20.24c0,-0.12 0.1,-0.22 0.23,-0.22 0.12,0 0.22,0.1 0.22,0.22l0 4.17c0,0.13 -0.1,0.23 -0.22,0.23 -0.13,0 -0.23,-0.1 -0.23,-0.23l0 -4.17z"/>
    <path class="fil3" d="M81.94 18.95c0,-0.12 0.1,-0.23 0.23,-0.23 0.12,0 0.22,0.11 0.22,0.23l0 6.76c0,0.12 -0.1,0.22 -0.22,0.22 -0.13,0 -0.23,-0.1 -0.23,-0.22l0 -6.76z"/>
    <path class="fil3" d="M80.39 20.03c0,-0.13 0.1,-0.23 0.22,-0.23 0.13,0 0.23,0.1 0.23,0.23l0 4.6c0,0.12 -0.1,0.22 -0.23,0.22 -0.12,0 -0.22,-0.1 -0.22,-0.22l0 -4.6z"/>
   </g>
  </g>
 </g>
</svg>
