<?xml version="1.0" encoding="UTF-8"?>
<!DOCTYPE svg PUBLIC "-//W3C//DTD SVG 1.1//EN" "http://www.w3.org/Graphics/SVG/1.1/DTD/svg11.dtd">
<!-- Creator: CorelDRAW 2019 (64 Bit) -->
<svg xmlns="http://www.w3.org/2000/svg" xml:space="preserve" width="1308px" height="924px" version="1.1" style="shape-rendering:geometricPrecision; text-rendering:geometricPrecision; image-rendering:optimizeQuality; fill-rule:evenodd; clip-rule:evenodd"
viewBox="0 0 118.04 83.4"
 xmlns:xlink="http://www.w3.org/1999/xlink">
 <defs>
  <style type="text/css">
   <![CDATA[
    .fil19 {fill:#75A1DE}
    .fil22 {fill:#9999FF}
    .fil23 {fill:#CCCCFF}
    .fil20 {fill:#E6E6E6}
    .fil21 {fill:white}
    .fil9 {fill:#2E5B9A;fill-rule:nonzero}
    .fil1 {fill:#303C60;fill-rule:nonzero}
    .fil8 {fill:#4381DB;fill-rule:nonzero}
    .fil3 {fill:#6791C9;fill-rule:nonzero}
    .fil17 {fill:#74B570;fill-rule:nonzero}
    .fil15 {fill:#7BCEE8;fill-rule:nonzero}
    .fil24 {fill:gray;fill-rule:nonzero}
    .fil10 {fill:#9CBEED;fill-rule:nonzero}
    .fil16 {fill:#9CD499;fill-rule:nonzero}
    .fil18 {fill:#A2DFF2;fill-rule:nonzero}
    .fil5 {fill:#CCCCCC;fill-rule:nonzero}
    .fil12 {fill:#DBE5EB;fill-rule:nonzero}
    .fil6 {fill:#E38540;fill-rule:nonzero}
    .fil4 {fill:#E6E6E6;fill-rule:nonzero}
    .fil0 {fill:#E7F3FE;fill-rule:nonzero}
    .fil2 {fill:#F09959;fill-rule:nonzero}
    .fil14 {fill:#F2E5DE;fill-rule:nonzero}
    .fil13 {fill:#F37168;fill-rule:nonzero}
    .fil7 {fill:#F5CE5C;fill-rule:nonzero}
    .fil11 {fill:white;fill-rule:nonzero}
   ]]>
  </style>
 </defs>
 <g id="Camada_x0020_1">
  <metadata id="CorelCorpID_0Corel-Layer"/>
  <g id="_1903198978480">
   <path class="fil0" d="M11.9 81.89c0,0 -25.11,-24.54 -2.39,-46.93 22.72,-22.38 44.99,-41.61 65.37,-32.76 20.38,8.86 6.66,19.79 29.04,35.99 22.39,16.21 12.43,29.34 8.42,35.85 -4.01,6.52 -4.68,8.19 -4.68,8.19l-95.76 -0.34z"/>
   <path class="fil1" d="M37.3 22.62c4.92,-4.39 8.53,-1.77 11.23,1.15 2.14,2.33 2.44,2.85 4.21,5.26 0.27,0.36 0.47,0.76 0.48,1.2 0.05,2.67 1.41,13.96 -0.11,17.85 -1.77,4.54 -23.58,6.61 -23.58,6.61l7.77 -32.07z"/>
   <path class="fil1" d="M51.27 50.66c-0.12,0 -0.22,-0.09 -0.23,-0.21 0,-0.13 0.09,-0.23 0.22,-0.24 0.64,-0.03 1.17,-0.32 1.61,-0.89 2.45,-3.17 1.07,-13.75 -0.13,-19.5 -0.02,-0.12 0.05,-0.24 0.17,-0.27 0.13,-0.02 0.24,0.05 0.27,0.18 0.26,1.25 1.14,5.71 1.41,10.36 0.28,4.77 -0.18,7.97 -1.37,9.51 -0.51,0.66 -1.16,1.02 -1.94,1.06l-0.01 0z"/>
   <path class="fil1" d="M39.14 21.31c-9.46,5.23 -3.69,22.92 -15.69,29.23 -3.32,1.75 -13.54,10.62 -6.84,22.31 4.37,7.65 17.45,6 21.76,-0.77 4.31,-6.77 0.77,-50.77 0.77,-50.77z"/>
   <path class="fil1" d="M13.97 61.53l-0.03 0c-0.13,-0.01 -0.22,-0.13 -0.2,-0.25 0.01,-0.06 0.22,-1.55 1.16,-3.53 0.87,-1.82 2.56,-4.4 5.66,-6.37 5.55,-3.54 9.24,-6.87 13.6,-23.28 0.03,-0.12 0.15,-0.19 0.27,-0.16 0.12,0.03 0.19,0.15 0.16,0.27 -2.11,7.94 -4.19,13.3 -6.57,16.88 -2.21,3.32 -4.48,4.92 -7.22,6.66 -5.76,3.68 -6.6,9.53 -6.61,9.59 -0.02,0.11 -0.11,0.19 -0.22,0.19z"/>
   <path class="fil1" d="M14.17 56.95c-0.04,0 -0.08,-0.01 -0.12,-0.03 -0.1,-0.07 -0.13,-0.21 -0.07,-0.31 1.37,-2.17 3.12,-3.96 5.2,-5.3 7.79,-5.04 9.08,-7.94 15.52,-24.54 0.05,-0.12 0.18,-0.18 0.29,-0.13 0.12,0.04 0.18,0.17 0.13,0.29 -3.22,8.3 -5.14,13.17 -7.25,16.61 -2.26,3.71 -4.81,5.79 -8.45,8.15 -2.02,1.31 -3.72,3.04 -5.06,5.16 -0.04,0.07 -0.11,0.1 -0.19,0.1z"/>
   <path class="fil2" d="M38.81 32.35c-3.25,6.77 -2.75,12.91 -2.75,12.91 0,0 0.37,2.38 1.88,2.88 1.5,0.5 3.63,-1.01 3.51,-3.01 -0.13,-2.01 0.5,-6.89 1.25,-8.65 0.75,-1.75 -3.89,-4.13 -3.89,-4.13z"/>
   <path class="fil3" d="M21.6 79.36c0.21,1.85 -0.25,1.69 1.39,2 1.64,0.31 4.56,-0.82 4.56,-0.82l-3.28 -6.1 -2.67 4.92z"/>
   <path class="fil2" d="M36.45 41.62c-0.92,3 -7.84,0.69 -10.27,1.39 -2.42,0.69 -4.5,10.84 -4.84,19.96 -0.35,9.11 0.11,16.38 1.04,17.53 0.92,1.16 16.15,1.62 17.53,1.16 1.39,-0.46 -11.53,-6.23 -11.53,-6.23 0,0 -0.81,-10.62 0.23,-16.04 1.03,-5.42 10.38,-12.58 10.38,-12.58l-2.54 -5.19z"/>
   <path class="fil2" d="M39.68 42.54c2.42,3.7 8.77,3.24 10.96,6.24 2.19,2.99 6.81,19.49 6.81,19.49l4.85 -16.73c0,0 3.92,-0.66 2.65,2.08 -2.27,4.87 -3.12,20.57 -5.58,22.8 -2.74,2.48 -5.46,0.47 -7,-3.88 -1.49,-4.2 -5.19,-13.27 -7.84,-16.73 -2.66,-3.46 -5.54,-9 -5.54,-9l0.69 -4.27z"/>
   <path class="fil4" d="M29.18 43.01c4.85,5.65 14.31,5.42 16.39,4.73 2.07,-0.7 2.07,-0.7 2.07,-0.7 0,0 1.62,-0.57 3,1.04 1.39,1.62 4.73,11.77 5.31,14.08 0.58,2.31 1.5,6.11 1.5,6.11 0,0 -2.48,2.98 -2.48,5.98 0,2.99 1.05,3.02 1.05,3.02 0,0 -3.07,-0.69 -3.76,-2.53 -0.7,-1.85 -6.93,-18.58 -6.93,-18.58l-17.18 0.35 0.23 18.92c0,0 -1.5,-1.39 -3.58,0 -2.08,1.38 -2.77,4.61 -2.42,5.07 0.34,0.47 -0.7,0.47 -0.7,0.12 0,-0.35 -1.96,-8.77 -0.57,-22.61 1.38,-13.85 4.04,-15.35 5.54,-15.47 1.5,-0.11 2.53,0.47 2.53,0.47z"/>
   <path class="fil3" d="M55.32 77.03c0.03,0.01 0.05,0.01 0.05,0.01 0,0 -0.02,0 -0.05,-0.01z"/>
   <path class="fil5" d="M55.98 68.69c-0.99,0.31 -2.69,3.85 -2.69,3.85 0,0 -3.84,-8.39 -5,-20l-1.37 7.88c1.9,5.09 4.87,13.07 5.34,14.32 0.63,1.68 3.18,2.39 3.53,2.47 -0.09,-0.04 -0.3,-0.16 -0.48,-0.67 -0.1,-0.09 -0.68,-0.36 -0.78,-0.46 -0.93,-0.85 -0.55,-2.85 0.07,-5.08 0.62,-2.23 2.39,-2.61 1.38,-2.31z"/>
   <path class="fil5" d="M28.97 56.49l-1.9 -8.72c-2.08,2.92 -2.31,12.92 -1.47,19.77 0.7,5.61 1.74,7.07 2.45,7.66 0.21,0.12 0.33,0.23 0.33,0.23l-0.23 -18.92 0.82 -0.02z"/>
   <path class="fil4" d="M23.45 47.69c3.54,9.54 1.77,11.47 6.43,22.66 2.6,6.25 7.61,10.96 7.61,10.96 0,0 4.04,1.04 9.11,0.69 5.08,-0.34 8.8,-0.69 8.8,-0.69 0,0 -5.34,-3.23 -5.57,-5.42 -0.23,-2.19 -1.23,-10.89 0.08,-17.04 1.02,-4.81 -3.19,-9.61 -3.19,-9.61l-7.04 -0.35 -16.23 -1.2z"/>
   <path class="fil5" d="M46.9 77.43c-0.27,0 -0.79,-0.06 -1.68,-0.2 -4.46,-0.69 -9.23,-5.92 -11.31,-9.31 -2.08,-3.38 -4.09,-5.11 -4.23,-5.61 -0.16,-0.6 -0.05,-0.83 0.31,-0.83 0.97,0 3.74,1.67 7.61,2.06 1.55,0.16 3.14,0.2 4.55,0.2 0.73,0 1.4,-0.01 2,-0.02 0.6,-0.01 1.12,-0.03 1.52,-0.03 1.15,0 1.45,0.08 0.24,0.46 -2.92,0.93 -10.92,-0.46 -9.46,2.47 1.72,3.44 3.75,6.77 6.69,8.77 1.54,1.04 4.81,2.04 3.76,2.04z"/>
   <path class="fil6" d="M41.43 44.25c0.05,-2.3 0.61,-6.23 1.27,-7.77 0.54,-1.25 -1.69,-2.83 -3,-3.62l-1.1 -0.05c-0.17,0.37 -0.33,0.73 -0.47,1.09 -1.17,7.66 2.32,10.82 3.98,11.46 0.72,0.28 1.53,0.31 2.22,0.24 -1.03,-0.36 -2.03,-0.78 -2.9,-1.35z"/>
   <path class="fil7" d="M39.32 47.66c-0.4,0 -0.82,-0.05 -1.23,-0.15 -0.96,-0.24 -3.26,-1.13 -3.79,-4.33 -0.01,-0.07 0.03,-0.14 0.1,-0.15 0.07,-0.01 0.14,0.04 0.15,0.1 0.51,3.06 2.69,3.91 3.6,4.13 1.42,0.35 2.93,0.03 3.5,-0.74 0.47,-0.62 0.19,-1.94 0.19,-1.95 -0.02,-0.07 0.03,-0.14 0.09,-0.15 0.07,-0.02 0.14,0.02 0.16,0.09 0.01,0.06 0.3,1.45 -0.23,2.16 -0.47,0.63 -1.45,0.99 -2.54,0.99z"/>
   <path class="fil2" d="M50.18 35.36c-0.79,4.13 -2.59,7.47 -5.65,6.84 -3.06,-0.63 -6.28,-5 -5.43,-9.11 0.85,-4.13 4.01,-6.96 7.07,-6.33 3.06,0.63 5.05,3.09 4.01,8.6z"/>
   <path class="fil2" d="M61.06 55.77c0,0 -5.65,15.19 -5.92,16.77 -0.27,1.58 0.27,2.58 0.42,2.58 0.16,0 4.96,-8.23 4.96,-8.23l0.54 -11.12z"/>
   <path class="fil2" d="M61.29 55.1c0.46,-1.53 -0.25,-3.48 -0.25,-3.48l2.05 0.25 -1.8 3.23z"/>
   <path class="fil8" d="M63.55 52.48l-5.73 0c-0.34,0 -0.59,-0.34 -0.49,-0.67l3.61 -12.11c0.06,-0.22 0.27,-0.37 0.5,-0.37l5.72 0c0.35,0 0.6,0.33 0.5,0.67l-3.62 12.11c-0.06,0.22 -0.26,0.37 -0.49,0.37z"/>
   <path class="fil9" d="M64.27 52.48l-5.73 0c-0.35,0 -0.6,-0.34 -0.5,-0.67l3.62 -12.11c0.06,-0.22 0.27,-0.37 0.49,-0.37l5.73 0c0.34,0 0.59,0.33 0.5,0.67l-3.62 12.11c-0.06,0.22 -0.27,0.37 -0.49,0.37z"/>
   <path class="fil10" d="M60.12 43.7c-0.61,2.2 -1.02,4 -0.92,4.03 0.11,0.03 0.68,-1.73 1.3,-3.93 0.61,-2.2 1.02,-4 0.91,-4.03 -0.1,-0.03 -0.68,1.73 -1.29,3.93z"/>
   <path class="fil2" d="M64.01 56.08c0.17,-2 1.9,-3.87 2.56,-4.47 0.2,-0.18 0.31,-0.44 0.31,-0.71 -0.01,-0.99 -0.06,-3.35 -0.26,-3.62 -0.26,-0.35 -0.92,-4.85 -1.23,-4.68 -0.3,0.18 0.09,4.11 0.09,4.11 0,0 -0.74,-0.35 -1.13,-0.52 -0.4,-0.18 -2.01,1.61 -2.01,1.61 0,0 -0.76,1.92 1.31,1.1 2.46,-0.97 0.62,1.74 -1.02,3.49 -1.36,1.43 -0.21,1.75 -0.21,1.75l1.1 -0.04 0.49 1.98z"/>
   <path class="fil7" d="M63.39 57.65c-0.18,0 -0.39,-0.03 -0.59,-0.09 -0.54,-0.17 -1.46,-0.7 -1.71,-2.42 -0.01,-0.07 0.04,-0.14 0.11,-0.15 0.07,-0.01 0.13,0.04 0.14,0.11 0.21,1.47 0.93,2.01 1.49,2.2 0.46,0.16 0.84,0.08 0.93,0.03 0.01,-0.04 0.04,-0.08 0.08,-0.1 0.07,-0.03 0.14,0 0.17,0.07 0.02,0.06 0.01,0.14 -0.04,0.19 -0.09,0.1 -0.31,0.16 -0.58,0.16z"/>
   <path class="fil7" d="M63.18 57.16c-0.18,0 -0.35,-0.02 -0.52,-0.04 -0.99,-0.15 -1.65,-0.65 -1.82,-1.38 -0.01,-0.07 0.03,-0.14 0.1,-0.15 0.07,-0.02 0.13,0.03 0.15,0.1 0.16,0.69 0.79,0.99 1.3,1.12 0.71,0.17 1.37,0.06 1.45,-0.03 0.03,-0.06 0.11,-0.08 0.17,-0.05 0.06,0.04 0.08,0.12 0.05,0.18 -0.1,0.17 -0.47,0.25 -0.88,0.25z"/>
   <path class="fil11" d="M47.08 32.76c-0.28,0 -0.58,0.16 -0.85,0.46 -0.32,0.37 -0.55,0.9 -0.64,1.49 -0.18,1.16 0.26,2.23 0.96,2.34 0.69,0.11 1.43,-0.78 1.61,-1.94 0.18,-1.16 -0.26,-2.23 -0.96,-2.34 -0.04,-0.01 -0.08,-0.01 -0.12,-0.01zm-0.41 4.75c-0.07,0 -0.13,0 -0.19,-0.01 -0.97,-0.15 -1.56,-1.4 -1.34,-2.85 0.11,-0.68 0.37,-1.29 0.75,-1.72 0.41,-0.46 0.9,-0.68 1.38,-0.61 0.97,0.15 1.56,1.41 1.33,2.86 -0.2,1.35 -1.03,2.33 -1.93,2.33z"/>
   <path class="fil11" d="M50.38 33.29c-0.38,0 -0.89,0.72 -1.06,1.82 -0.17,1.15 0.13,2.01 0.5,2.06 0.38,0.06 0.92,-0.67 1.1,-1.82 0.08,-0.53 0.06,-1.05 -0.05,-1.46 -0.1,-0.35 -0.27,-0.57 -0.45,-0.6 -0.01,0 -0.03,0 -0.04,0zm-0.51 4.23c-0.04,0 -0.07,-0.01 -0.1,-0.01 -0.63,-0.1 -0.98,-1.17 -0.78,-2.45 0.19,-1.28 0.85,-2.2 1.48,-2.11 0.33,0.06 0.58,0.36 0.73,0.85 0.12,0.45 0.14,1.02 0.05,1.61 -0.18,1.21 -0.78,2.11 -1.38,2.11z"/>
   <path class="fil11" d="M45.6 33.69c-0.02,0 -0.04,0 -0.06,-0.01l-7.54 -2.15c-0.12,-0.04 -0.19,-0.16 -0.15,-0.28 0.03,-0.12 0.16,-0.19 0.28,-0.16l7.53 2.16c0.12,0.03 0.19,0.16 0.16,0.27 -0.03,0.1 -0.12,0.17 -0.22,0.17z"/>
   <path class="fil1" d="M50.99 29c-11.67,6.87 -12.31,2.26 -12.31,2.26l0.69 -6.57 6.92 0.39 4.7 3.92z"/>
   <path class="fil2" d="M39.58 32.78c0.27,1.16 -0.1,2.24 -0.83,2.42 -0.72,0.16 -1.53,-0.64 -1.81,-1.8 -0.27,-1.16 0.1,-2.24 0.83,-2.41 0.73,-0.17 1.54,0.63 1.81,1.79z"/>
   <path class="fil7" d="M38.78 34.31c0,0.25 -0.2,0.46 -0.46,0.46 -0.25,0 -0.46,-0.21 -0.46,-0.46 0,-0.25 0.21,-0.46 0.46,-0.46 0.26,0 0.46,0.21 0.46,0.46z"/>
   <path class="fil9" d="M108.02 83.4l-95.93 0c-0.59,0 -1.07,-0.48 -1.07,-1.07 0,-0.59 0.48,-1.07 1.07,-1.07l95.93 0c0.59,0 1.06,0.48 1.06,1.07 0,0.59 -0.47,1.07 -1.06,1.07z"/>
   <path class="fil12" d="M39.75 81.06c0,0 -4.4,0.05 -4.46,0.44 -0.05,0.39 0.17,0.56 1.73,0.84 1.56,0.28 19.1,0.39 19.26,0.28 0.17,-0.11 5.29,-1.34 5.29,-1.34l-12.3 -0.22 -9.52 0z"/>
   <path class="fil2" d="M42.14 78.13c0,0 3.16,-1.38 4.08,-0.77 0.92,0.61 3.59,3.44 3.59,3.44l-7.67 -2.67z"/>
   <path class="fil9" d="M49.63 81.05c-0.06,0.07 -0.15,0.1 -0.2,0.07l-6.49 -4.83c-0.35,-0.27 -0.51,-0.66 -0.34,-0.87 0.17,-0.21 0.59,-0.14 0.92,0.15l6.14 5.27c0.04,0.04 0.03,0.13 -0.03,0.21z"/>
   <path class="fil2" d="M32.6 77.54c0,0 5.23,2.08 5.85,2.08 0.62,0 4.05,-2.31 5.2,-2 1.16,0.3 6.8,3.15 6.64,3.38 -0.15,0.23 -1.76,0.77 -6.53,0.62 -4.77,-0.16 -12.54,-0.85 -12.54,-0.85l1.38 -3.23z"/>
   <path class="fil13" d="M87.97 81.35l-21.32 0c-0.32,0 -0.58,-0.26 -0.58,-0.57l0 -3.36c0,-0.32 0.26,-0.58 0.58,-0.58l21.32 0c0.79,0 1.44,0.65 1.44,1.44l0 1.63c0,0.79 -0.65,1.44 -1.44,1.44z"/>
   <path class="fil14" d="M86.32 77.6l-20.24 0c-0.14,0.24 -0.23,0.51 -0.23,0.81l0 1.38c0,0.29 0.09,0.56 0.23,0.8l20.24 0c0.72,0 1.31,-0.59 1.31,-1.31l0 -0.37c0,-0.72 -0.59,-1.31 -1.31,-1.31z"/>
   <path class="fil15" d="M87.25 76.84l-16.21 0c-0.21,0 -0.39,-0.17 -0.39,-0.39l0 -1.95c0,-0.21 0.18,-0.39 0.39,-0.39l16.21 0c0.54,0 0.97,0.44 0.97,0.98l0 0.78c0,0.54 -0.43,0.97 -0.97,0.97z"/>
   <path class="fil14" d="M85.9 74.58l-15.24 0c-0.11,0.14 -0.17,0.3 -0.17,0.48l0 0.83c0,0.18 0.06,0.35 0.17,0.49l15.24 0c0.54,0 0.98,-0.36 0.98,-0.79l0 -0.22c0,-0.44 -0.44,-0.79 -0.98,-0.79z"/>
   <path class="fil16" d="M103.07 78.03c2.23,-12.2 1.74,-16.57 -4.22,-26.53 -5.95,-9.96 -6.52,-28.5 -8.77,-23.06 -2.24,5.44 -1.94,19.09 5.1,25.72 7.03,6.62 7.98,9.59 8.4,12.29 0.42,2.69 -1.01,10.98 -1.01,10.98l0.5 0.6z"/>
   <path class="fil17" d="M104.19 70.17c0,-0.05 0,-0.1 0.01,-0.14 -0.13,-1 -0.84,-6.15 -1.82,-8.18 -1.08,-2.26 -5.84,-6.19 -7.18,-11.11 -1.34,-4.93 -3.46,-8.75 -4.84,-11.87 -1.84,-4.11 -0.84,-9.57 0.68,-11.35 -0.04,-0.02 -0.07,-0.04 -0.11,-0.05l-0.5 0.31c-0.11,0.16 -0.23,0.37 -0.35,0.66 -2.24,5.44 -1.94,19.09 5.1,25.72 7.03,6.62 7.98,9.59 8.4,12.29 0.11,0.72 0.09,1.86 0,3.13l0.61 0.59z"/>
   <path class="fil16" d="M100.03 75.88c1.66,-14.34 1.11,-19.31 -2.09,-30.78 -3.2,-11.47 17.65,-37.62 16.99,-33.09 -0.67,4.52 -2.87,15.77 -8.61,22.83 -5.73,7.06 -6.17,12.8 -5.07,18.87 1.1,6.06 -0.22,20.18 -0.22,20.18l-0.67 2.54 -0.33 -0.55z"/>
   <path class="fil17" d="M100.79 69.92l0 0c-0.08,0 -0.14,-0.07 -0.13,-0.14 0,-0.05 0.16,-4.47 0.08,-8.1 -0.08,-3.63 -1.06,-9.85 -1.66,-11.99 -0.55,-1.95 -1.24,-8.48 2.09,-15.22 1.66,-3.36 2.98,-5.48 4.82,-8.42 1.8,-2.91 4.06,-6.52 7.63,-12.89 0.04,-0.06 0.12,-0.09 0.19,-0.05 0.07,0.04 0.09,0.12 0.05,0.19 -3.57,6.37 -5.83,9.99 -7.64,12.9 -1.83,2.93 -3.15,5.05 -4.8,8.39 -3.29,6.67 -2.62,13.1 -2.08,15.02 0.6,2.15 1.6,8.41 1.68,12.07 0.08,3.63 -0.08,8.06 -0.09,8.11 0,0.07 -0.06,0.13 -0.14,0.13z"/>
   <path class="fil16" d="M100.59 81.03c0.99,-9.6 1.15,-4.86 -2.97,-17.9 -4.72,-14.93 12.12,-28.18 14.88,-22.77 2.76,5.4 5.96,22.39 4.74,21.84 -1.21,-0.55 -9.26,-16.33 -9.49,-15.66 -0.21,0.66 -10.92,6.17 -10.48,11.8 0.45,5.62 4.53,14.56 4.53,14.56l-0.11 8.24 -1.1 -0.11z"/>
   <path class="fil17" d="M100.74 80.66l0.81 0.08 0.11 -7.81c-0.25,-0.56 -4.1,-9.15 -4.52,-14.58 -0.35,-4.43 5.98,-8.72 9.02,-10.78 0.72,-0.49 1.4,-0.96 1.47,-1.08 0.02,-0.06 0.07,-0.11 0.13,-0.11 0.27,-0.03 0.8,0.84 3.79,6.21 2.14,3.85 5.07,9.12 5.74,9.48 0.05,-0.09 0.19,-0.54 -0.1,-2.87 -0.21,-1.68 -0.59,-3.9 -1.08,-6.24 -1.18,-5.57 -2.57,-10.26 -3.74,-12.54 -0.63,-1.26 -2.17,-1.5 -4.2,-0.67 -5.5,2.26 -13.92,12.26 -10.42,23.33 1.11,3.5 1.89,5.66 2.46,7.23 1.29,3.56 1.29,3.56 0.82,7.69 -0.09,0.76 -0.18,1.61 -0.29,2.66zm0.95 0.37l-0.01 0 -1.11 -0.11c-0.03,-0.01 -0.07,-0.02 -0.09,-0.05 -0.02,-0.03 -0.04,-0.07 -0.03,-0.1 0.11,-1.11 0.22,-2.05 0.3,-2.8 0.47,-4.07 0.47,-4.07 -0.8,-7.56 -0.57,-1.58 -1.35,-3.74 -2.46,-7.24 -0.83,-2.62 -1.04,-5.34 -0.64,-8.07 0.36,-2.41 1.19,-4.79 2.46,-7.06 2.19,-3.91 5.62,-7.26 8.76,-8.54 2.18,-0.9 3.84,-0.61 4.55,0.79 1.17,2.3 2.57,7 3.74,12.57 0.68,3.22 1.68,8.82 1.11,9.41 -0.07,0.08 -0.18,0.1 -0.28,0.06 -0.67,-0.31 -2.86,-4.17 -5.88,-9.6 -1.52,-2.73 -3.08,-5.54 -3.51,-6.02 -0.17,0.19 -0.6,0.48 -1.49,1.09 -2.99,2.03 -9.23,6.26 -8.9,10.53 0.44,5.53 4.47,14.42 4.51,14.51 0.01,0.02 0.02,0.04 0.02,0.06l-0.11 7.99c0,0.04 -0.02,0.08 -0.05,0.1 -0.02,0.03 -0.06,0.04 -0.09,0.04z"/>
   <path class="fil15" d="M104.05 81.43l-5 0c-0.35,0 -0.66,-0.2 -0.69,-0.44l-1.68 -12.65c-0.08,-0.58 0.31,-1.07 0.86,-1.07l8.02 0c0.55,0 0.94,0.49 0.86,1.07l-1.68 12.65c-0.03,0.24 -0.34,0.44 -0.69,0.44z"/>
   <path class="fil18" d="M103.46 80.99l-0.72 0c-0.35,0 -0.63,-0.2 -0.62,-0.45l0.25 -10.93c0.01,-0.54 0.46,-1 0.99,-1l1.09 0c0.53,0 0.91,0.46 0.86,1l-1.17 10.93c-0.02,0.25 -0.33,0.45 -0.68,0.45z"/>
   <path class="fil17" d="M98.12 63.29l0.09 -0.15c-0.32,-1.17 -0.59,-2.34 -0.77,-3.43 0.18,2.06 0.68,3.58 0.68,3.58z"/>
   <path class="fil17" d="M98.12 54.05c-0.32,0.81 -0.52,1.66 -0.63,2.5 1.48,-4.85 9.71,-9.23 10.24,-9.97l0.09 -0.19c-3.08,-0.86 -8.03,3.48 -9.7,7.66z"/>
   <path class="fil17" d="M117.25 61.9c-0.06,0 -0.12,-0.04 -0.14,-0.11l-1.49 -6.08c-1.17,-4.77 -2.62,-10.7 -4.25,-13.34 -0.27,-0.43 -1.44,-1.02 -3.11,-0.91 -2.25,0.16 -6.58,1.72 -10.35,10.33 -0.02,0.07 -0.11,0.11 -0.18,0.08 -0.07,-0.04 -0.1,-0.12 -0.07,-0.19 3.82,-8.75 8.27,-10.33 10.58,-10.49 1.8,-0.13 3.05,0.53 3.36,1.04 1.66,2.67 3.06,8.38 4.29,13.42l1.49 6.08c0.02,0.07 -0.02,0.15 -0.1,0.17 -0.01,0 -0.02,0 -0.03,0z"/>
   <path class="fil17" d="M112.86 53.97l-0.01 -0.01c-0.08,-0.01 -0.13,-0.07 -0.12,-0.15 0,-0.05 0.56,-5.05 -0.75,-10.31 -0.02,-0.07 0.02,-0.15 0.1,-0.17 0.07,-0.01 0.15,0.03 0.17,0.11 1.32,5.3 0.76,10.35 0.75,10.4 -0.01,0.07 -0.06,0.13 -0.14,0.13z"/>
   <path class="fil17" d="M111.32 50.87l-0.02 0c-0.07,-0.01 -0.13,-0.07 -0.12,-0.15 0.01,-0.05 0.54,-4.62 0.17,-8.41 -0.01,-0.07 0.05,-0.14 0.12,-0.15 0.08,-0.01 0.15,0.05 0.15,0.12 0.38,3.82 -0.16,8.43 -0.16,8.47 -0.01,0.07 -0.07,0.12 -0.14,0.12z"/>
   <path class="fil17" d="M106.06 26.32c-0.05,0 -0.1,-0.03 -0.13,-0.08 -0.03,-0.07 0,-0.15 0.07,-0.19 0.04,-0.02 3.99,-1.95 6.28,-6.2 0.04,-0.07 0.12,-0.1 0.19,-0.06 0.07,0.04 0.09,0.12 0.06,0.19 -2.33,4.33 -6.37,6.3 -6.41,6.32 -0.02,0.01 -0.04,0.02 -0.06,0.02z"/>
   <path class="fil17" d="M103.13 31.33c-0.06,0 -0.12,-0.05 -0.13,-0.11 -0.02,-0.08 0.03,-0.15 0.1,-0.17 0.04,0 3.28,-0.7 7.13,-3.81 0.06,-0.05 0.15,-0.04 0.19,0.02 0.05,0.06 0.04,0.15 -0.02,0.19 -3.9,3.16 -7.2,3.87 -7.24,3.87l-0.03 0.01z"/>
   <path class="fil17" d="M100.72 36.18c-0.06,0 -0.09,-0.01 -0.1,-0.01 -0.08,0 -0.13,-0.07 -0.13,-0.15 0.01,-0.07 0.07,-0.13 0.15,-0.12 0.02,0 2.26,0.12 5.84,-2.57 0.06,-0.04 0.14,-0.03 0.19,0.03 0.05,0.06 0.03,0.15 -0.03,0.2 -3.29,2.46 -5.44,2.62 -5.92,2.62z"/>
   <path class="fil19" d="M44.48 47.96c-3.17,0.42 -6.61,-0.08 -10.3,-1.43l5.89 18.08 4.41 -16.65z"/>
   <path class="fil20" d="M28.98 42.91c0,0 2.74,0.26 4.11,0.3l-1.84 1.69c0,0 -1.99,-1.3 -2.27,-1.99z"/>
   <path class="fil20" d="M44.84 45.78c0,0 2.91,0.95 3.41,1.17l-2.05 0.69 -1.36 -1.86z"/>
   <polygon class="fil21" points="47.67,48.17 44.79,45.47 40.07,64.61 33.11,43.01 30.13,45.93 40.07,64.61 "/>
   <path class="fil22" d="M68.98 29.26c5.95,0 10.77,-4.83 10.77,-10.78 0,-5.94 -4.82,-10.77 -10.77,-10.77 -5.95,0 -10.77,4.83 -10.77,10.77 0,2.14 0.62,4.14 1.69,5.81l-4.74 5.55 6.23 -3.71c1.95,1.93 4.63,3.13 7.59,3.13z"/>
   <circle class="fil23" cx="68.98" cy="18.48" r="5.57"/>
   <path class="fil22" d="M68.98 14.79l0 0c0.68,0 1.26,0.49 1.4,1.13l-0.85 0 0 0.35 0.88 0 0 0.34 -0.88 0 0 0.34 0.88 0 0 0.34 -0.88 0 0 0.34 0.88 0 0 0.34 -0.88 0 0 0.34 0.88 0 0 1.5c0,0.79 -0.64,1.43 -1.43,1.43l0 0c-0.79,0 -1.44,-0.64 -1.44,-1.43l0 -1.5 0.77 0 0 -0.34 -0.77 0 0 -0.34 0.77 0 0 -0.34 -0.77 0 0 -0.34 0.77 0 0 -0.34 -0.77 0 0 -0.34 0.77 0 0 -0.35 -0.74 0c0.14,-0.64 0.72,-1.13 1.41,-1.13zm0 9.27c0.09,0 0.19,-0.01 0.29,-0.01l0 -1.49c0.59,-0.07 1.12,-0.33 1.53,-0.73l0.01 -0.02c0.47,-0.47 0.77,-1.12 0.77,-1.83l0 -1.25c0,-0.16 -0.13,-0.29 -0.29,-0.29 -0.16,0 -0.3,0.13 -0.3,0.29l0 1.25c0,0.55 -0.22,1.06 -0.59,1.42l-0.01 0.02c-0.36,0.35 -0.86,0.57 -1.41,0.57 -0.56,0 -1.06,-0.22 -1.43,-0.59 -0.36,-0.36 -0.59,-0.87 -0.59,-1.42l0 -1.25c0,-0.16 -0.13,-0.29 -0.29,-0.29 -0.16,0 -0.29,0.13 -0.29,0.29l0 1.25c0,0.71 0.29,1.36 0.76,1.83 0.41,0.41 0.95,0.68 1.55,0.75l0 1.49c0.09,0 0.19,0.01 0.29,0.01z"/>
   <path class="fil24" d="M61.7 16.29c0,-0.1 0.08,-0.18 0.18,-0.18 0.1,0 0.18,0.08 0.18,0.18l0 4.26c0,0.1 -0.08,0.18 -0.18,0.18 -0.1,0 -0.18,-0.08 -0.18,-0.18l0 -4.26z"/>
   <path class="fil24" d="M60.45 15.03c0,-0.1 0.09,-0.18 0.18,-0.18 0.1,0 0.19,0.08 0.19,0.18l0 6.78c0,0.1 -0.09,0.19 -0.19,0.19 -0.09,0 -0.18,-0.09 -0.18,-0.19l0 -6.78z"/>
   <path class="fil24" d="M59.21 15.83c0,-0.1 0.08,-0.18 0.18,-0.18 0.1,0 0.18,0.08 0.18,0.18l0 5.18c0,0.1 -0.08,0.18 -0.18,0.18 -0.1,0 -0.18,-0.08 -0.18,-0.18l0 -5.18z"/>
   <path class="fil24" d="M57.97 16.75c0,-0.1 0.08,-0.18 0.18,-0.18 0.1,0 0.18,0.08 0.18,0.18l0 3.34c0,0.1 -0.08,0.18 -0.18,0.18 -0.1,0 -0.18,-0.08 -0.18,-0.18l0 -3.34z"/>
   <path class="fil24" d="M56.73 15.72c0,-0.1 0.08,-0.18 0.18,-0.18 0.1,0 0.18,0.08 0.18,0.18l0 5.4c0,0.1 -0.08,0.19 -0.18,0.19 -0.1,0 -0.18,-0.09 -0.18,-0.19l0 -5.4z"/>
   <path class="fil24" d="M55.48 16.58c0,-0.1 0.08,-0.18 0.18,-0.18 0.1,0 0.18,0.08 0.18,0.18l0 3.68c0,0.1 -0.08,0.18 -0.18,0.18 -0.1,0 -0.18,-0.08 -0.18,-0.18l0 -3.68z"/>
   <path class="fil24" d="M81.8 16.29c0,-0.1 0.08,-0.18 0.18,-0.18 0.1,0 0.18,0.08 0.18,0.18l0 4.26c0,0.1 -0.08,0.18 -0.18,0.18 -0.1,0 -0.18,-0.08 -0.18,-0.18l0 -4.26z"/>
   <path class="fil24" d="M80.56 15.03c0,-0.1 0.08,-0.18 0.18,-0.18 0.1,0 0.18,0.08 0.18,0.18l0 6.78c0,0.1 -0.08,0.19 -0.18,0.19 -0.1,0 -0.18,-0.09 -0.18,-0.19l0 -6.78z"/>
   <path class="fil24" d="M79.32 15.83c0,-0.1 0.08,-0.18 0.18,-0.18 0.1,0 0.18,0.08 0.18,0.18l0 5.18c0,0.1 -0.08,0.18 -0.18,0.18 -0.1,0 -0.18,-0.08 -0.18,-0.18l0 -5.18z"/>
   <path class="fil24" d="M78.07 16.75c0,-0.1 0.08,-0.18 0.18,-0.18 0.1,0 0.18,0.08 0.18,0.18l0 3.34c0,0.1 -0.08,0.18 -0.18,0.18 -0.1,0 -0.18,-0.08 -0.18,-0.18l0 -3.34z"/>
   <path class="fil24" d="M76.83 15.72c0,-0.1 0.08,-0.18 0.18,-0.18 0.1,0 0.18,0.08 0.18,0.18l0 5.4c0,0.1 -0.08,0.19 -0.18,0.19 -0.1,0 -0.18,-0.09 -0.18,-0.19l0 -5.4z"/>
   <path class="fil24" d="M75.59 16.58c0,-0.1 0.08,-0.18 0.18,-0.18 0.1,0 0.18,0.08 0.18,0.18l0 3.68c0,0.1 -0.08,0.18 -0.18,0.18 -0.1,0 -0.18,-0.08 -0.18,-0.18l0 -3.68z"/>
  </g>
 </g>
</svg>
